<?xml version="1.0" standalone="no"?>
<!DOCTYPE svg PUBLIC "-//W3C//DTD SVG 20010904//EN"
 "http://www.w3.org/TR/2001/REC-SVG-20010904/DTD/svg10.dtd">
<svg version="1.0" xmlns="http://www.w3.org/2000/svg"
 width="960.000000pt" height="960.000000pt" viewBox="0 0 960.000000 960.000000"
 preserveAspectRatio="xMidYMid meet">
<metadata>
Created by potrace 1.11, written by Peter Selinger 2001-2013
</metadata>
<g transform="translate(0.000000,960.000000) scale(0.100000,-0.100000)"
fill="#000000" stroke="none">
<path d="M5580 8915 c0 -4 5 -15 10 -26 8 -15 7 -19 -5 -19 -8 0 -15 5 -15 10
0 6 -7 10 -15 10 -9 0 -12 -6 -8 -16 4 -11 1 -15 -13 -12 -15 2 -19 -3 -17
-22 1 -14 -1 -19 -3 -12 -9 19 -24 14 -24 -9 0 -11 -3 -19 -7 -17 -60 28 -89
45 -94 52 -4 5 -11 6 -17 2 -5 -3 -12 0 -15 7 -2 7 -28 18 -55 26 -52 13 -97
8 -86 -10 3 -6 12 -8 18 -6 21 8 36 -7 29 -31 -3 -12 -9 -19 -14 -17 -4 3 -6
12 -2 20 6 17 -5 19 -26 6 -8 -5 -11 -16 -8 -24 4 -12 -2 -14 -32 -10 -30 4
-38 2 -38 -10 0 -9 4 -14 9 -11 11 7 29 -42 22 -61 -4 -8 -1 -15 5 -15 7 0 16
10 21 23 7 17 9 18 9 5 1 -10 6 -18 11 -18 12 0 13 -10 1 -29 -7 -10 -13 -11
-30 -2 -18 10 -21 9 -22 -11 -1 -17 -3 -18 -6 -5 -2 9 -11 17 -19 17 -8 0 -13
4 -10 8 9 15 -41 51 -63 45 -12 -3 -21 -9 -21 -13 0 -11 -49 -19 -56 -9 -9 15
-53 -12 -46 -29 4 -11 1 -14 -9 -10 -8 3 -23 0 -32 -7 -17 -12 -17 -14 5 -30
14 -11 19 -19 11 -22 -7 -2 -9 -11 -6 -19 3 -8 -1 -21 -8 -30 -10 -13 -10 -17
2 -25 12 -8 6 -13 -13 -10 -8 1 -22 -59 -15 -66 3 -2 14 0 24 5 17 10 17 11 0
17 -16 7 -15 10 8 33 17 17 22 28 14 32 -7 5 -8 10 -1 14 13 8 20 -12 17 -51
-2 -18 2 -33 7 -33 5 0 6 5 3 10 -3 6 -1 10 5 10 8 0 10 -13 5 -42 -7 -45 -29
-78 -50 -78 -14 0 -29 -29 -20 -38 3 -3 5 1 5 8 0 10 3 11 10 4 12 -12 2 -47
-10 -39 -11 7 -50 -43 -50 -62 0 -9 6 -13 14 -10 11 5 12 -2 2 -41 -10 -40
-16 -47 -39 -50 -18 -2 -27 -9 -27 -22 0 -10 4 -20 10 -22 5 -1 7 -14 3 -26
-3 -13 -9 -20 -12 -15 -3 5 -17 4 -31 -3 -26 -14 -23 -16 33 -28 41 -9 32 -25
-11 -19 -53 7 -107 -18 -128 -58 -23 -45 -14 -201 15 -280 21 -56 64 -99 98
-99 10 0 30 -6 44 -14 15 -7 32 -10 39 -6 14 9 90 -9 90 -21 0 -5 -10 -9 -22
-10 -14 0 -17 -2 -8 -6 8 -2 22 -7 30 -10 14 -6 23 -8 44 -11 6 -1 1 -8 -9
-16 -18 -13 -18 -17 -5 -42 8 -16 22 -38 32 -50 30 -34 34 -88 9 -120 -20 -26
-21 -26 -21 -5 0 12 -4 19 -10 16 -5 -3 -10 -15 -10 -26 0 -10 -7 -19 -15 -19
-8 0 -15 -5 -15 -10 0 -6 7 -13 15 -16 8 -4 15 -16 14 -28 0 -19 -1 -19 -8 -2
-6 16 -10 14 -35 -19 -19 -24 -32 -33 -38 -27 -7 7 -7 16 0 27 6 12 5 32 -4
62 -7 24 -9 41 -4 38 6 -4 10 3 10 13 0 23 -23 35 -38 20 -6 -6 -12 -6 -17 2
-4 6 1 17 11 25 12 8 21 10 25 3 3 -5 9 -2 13 8 3 9 4 19 1 22 -3 3 -5 0 -5
-5 0 -12 -25 -12 -36 0 -18 18 -22 2 -18 -60 3 -38 7 -82 8 -99 1 -18 8 -39
15 -48 16 -19 23 -118 10 -127 -6 -3 -6 -15 -1 -30 7 -17 6 -28 -4 -37 -8 -7
-15 -27 -15 -45 -3 -79 0 -122 9 -125 5 -1 7 -14 4 -27 -2 -14 0 -31 5 -38 6
-6 11 -30 11 -51 2 -48 14 -57 68 -50 29 3 45 0 54 -11 15 -18 0 -21 -18 -3
-6 6 -15 9 -18 5 -9 -9 19 -34 33 -30 6 2 14 -1 18 -6 3 -6 -1 -11 -9 -11 -30
0 -16 -19 27 -38 273 -121 557 -155 696 -84 52 27 93 74 77 89 -5 4 -11 2 -13
-5 -3 -6 -9 -9 -14 -6 -6 3 -2 12 8 21 10 8 13 12 7 9 -6 -3 -10 9 -11 30 -1
29 1 33 13 23 8 -6 14 -19 14 -28 0 -9 7 -34 15 -56 8 -22 14 -56 15 -75 0
-36 30 -144 43 -156 4 -4 7 -14 7 -23 0 -16 93 -317 112 -361 6 -14 27 -81 48
-150 21 -69 59 -183 85 -255 73 -205 117 -377 175 -695 22 -118 40 -218 40
-222 0 -4 -10 -7 -22 -5 -17 1 -24 -4 -26 -21 -3 -22 37 -102 65 -130 7 -7 15
-23 18 -35 10 -45 23 -142 19 -146 -2 -2 -15 1 -28 8 -48 26 -46 5 4 -72 58
-89 75 -126 62 -139 -5 -5 -5 -30 -1 -56 10 -56 38 -217 45 -250 3 -13 7 -40
9 -60 2 -21 7 -50 10 -67 4 -24 3 -26 -4 -10 -8 17 -10 15 -10 -13 -1 -18 3
-31 8 -28 10 6 27 -56 35 -128 4 -27 11 -55 17 -62 6 -8 9 -31 6 -51 -2 -21 1
-56 8 -78 6 -22 20 -67 30 -100 16 -53 28 -127 39 -245 2 -19 6 -42 9 -50 14
-40 30 -111 37 -160 4 -30 8 -46 9 -35 3 43 23 -6 38 -96 19 -113 25 -185 25
-344 0 -66 5 -145 13 -177 8 -36 9 -60 3 -66 -14 -14 -9 -165 5 -190 5 -6 10
-42 12 -78 6 -84 7 -88 61 -182 24 -42 44 -81 44 -85 0 -4 -17 -5 -37 -1 l-36
7 21 -23 c16 -17 22 -36 22 -67 0 -36 5 -46 30 -65 17 -12 30 -30 30 -39 0
-10 4 -20 9 -23 5 -3 15 -30 21 -58 7 -29 19 -66 27 -82 11 -21 12 -31 3 -40
-13 -13 -555 -16 -687 -3 l-83 7 1 -57 c0 -32 7 -80 14 -108 l12 -50 -1 95 -1
95 35 0 c30 0 35 -3 33 -23 -2 -12 2 -22 7 -22 6 0 10 -19 10 -43 0 -24 3 -47
8 -51 4 -4 7 -11 8 -14 4 -37 18 -82 25 -82 12 0 11 27 -1 35 -15 9 -12 45 4
45 7 0 17 -10 21 -22 l7 -23 8 25 c5 17 8 19 9 8 1 -23 20 -23 37 -1 8 11 13
13 14 6 0 -18 48 -40 105 -48 28 -4 55 -12 62 -17 6 -5 23 -6 37 -2 26 6 56
-13 56 -36 0 -6 6 -10 13 -8 16 4 61 -31 70 -54 7 -21 -3 -24 -21 -6 -6 6 -13
10 -16 7 -11 -12 -14 -46 -6 -59 9 -13 12 -13 24 2 7 10 15 15 18 12 3 -3 25
-5 49 -6 24 0 49 -5 56 -10 7 -5 21 -7 33 -3 14 4 20 2 20 -8 0 -21 29 -30 36
-12 4 8 13 15 21 15 10 0 13 -6 9 -17 -7 -17 13 -103 24 -103 11 0 31 17 29
26 -1 5 -1 28 0 51 l1 42 63 -3 c34 -2 84 -7 110 -11 37 -6 51 -5 57 6 5 7 6
18 2 24 -4 5 -8 21 -10 34 -3 21 -1 23 13 11 24 -20 30 -4 12 37 -9 21 -30 85
-47 143 -17 58 -38 125 -46 150 -8 25 -24 87 -35 137 -10 51 -24 104 -29 118
-6 15 -10 38 -10 51 0 22 -20 99 -38 144 -3 8 -11 33 -17 55 -6 24 -16 39 -24
37 -8 -2 -10 4 -6 18 4 13 1 22 -8 25 -7 3 -20 28 -27 55 -11 42 -16 48 -28
37 -13 -10 -14 -8 -8 13 4 14 11 39 15 56 5 17 14 39 20 50 10 16 11 10 8 -33
-2 -29 -1 -50 3 -48 7 5 24 64 22 77 -1 4 15 55 34 115 20 59 38 115 39 123 6
38 20 79 43 120 38 68 128 185 159 208 25 18 28 26 28 78 0 38 -4 59 -13 62
-7 2 -23 20 -36 41 -13 20 -36 43 -52 51 -16 8 -33 21 -37 27 -4 7 -15 13 -22
13 -8 0 -15 4 -15 10 0 5 -7 7 -15 4 -9 -4 -15 0 -15 10 0 9 -8 16 -19 16 -11
0 -29 12 -40 28 -12 15 -25 32 -31 39 -5 7 -10 16 -10 20 0 4 -16 19 -35 33
-18 14 -36 35 -39 47 -4 12 -18 35 -32 50 -16 17 -23 34 -20 47 3 11 -4 32
-15 47 -10 15 -19 31 -19 37 0 5 -24 45 -53 88 -67 101 -103 183 -129 292 -11
48 -37 134 -58 192 -21 58 -56 166 -79 240 -23 74 -55 178 -71 230 -17 52 -30
102 -30 110 0 29 31 -45 54 -130 25 -89 47 -151 57 -160 3 -3 6 -12 6 -20 0
-8 10 -49 22 -90 12 -41 30 -100 38 -130 16 -54 43 -101 29 -50 -4 14 -11 84
-16 155 -14 195 -20 237 -40 265 -9 14 -20 38 -24 55 -7 29 -26 74 -72 169
-13 28 -24 55 -24 60 0 6 -17 58 -39 116 -49 135 -76 228 -68 237 4 3 7 -2 7
-13 0 -10 6 -30 13 -44 7 -14 28 -72 47 -130 19 -58 42 -117 51 -131 30 -44
109 -251 109 -286 0 -14 6 -23 15 -23 13 0 15 7 9 38 -4 20 -10 39 -14 42 -4
3 -13 30 -20 60 -7 30 -16 67 -21 83 -5 16 -4 27 2 27 5 0 9 -7 9 -16 0 -32
62 -146 82 -152 14 -3 19 -11 15 -28 -2 -13 0 -21 4 -18 5 3 9 -11 9 -31 0
-47 24 -85 51 -78 11 3 18 11 15 18 -2 7 2 22 9 33 18 25 7 37 -16 16 -10 -9
-15 -23 -11 -36 3 -14 1 -19 -6 -14 -7 4 -12 21 -12 38 0 23 4 29 15 24 10 -3
18 1 22 11 4 9 1 19 -5 21 -29 9 -7 21 46 24 33 2 55 7 52 13 -3 5 -11 9 -17
7 -7 -2 -13 3 -13 10 0 8 -9 14 -20 15 -12 1 -20 -4 -20 -14 0 -9 -2 -14 -5
-12 -7 8 19 151 32 173 9 16 7 23 -10 36 -18 15 -19 20 -7 68 6 29 10 59 7 66
-3 8 3 26 14 40 18 22 19 35 14 117 -4 50 -10 101 -15 113 -4 12 -6 37 -4 56
2 19 -1 50 -8 70 -15 46 -12 80 9 95 14 11 15 18 6 49 -6 19 -8 50 -4 68 9 44
3 78 -15 78 -8 0 -14 7 -14 15 0 10 -10 15 -32 15 -46 0 -32 7 52 24 40 9 77
21 81 28 14 22 29 -4 39 -68 13 -78 13 -749 -1 -990 -9 -178 -8 -199 11 -292
20 -99 27 -229 11 -187 -5 11 -12 47 -16 80 l-8 60 -14 -35 c-13 -31 -13 -38
0 -65 12 -23 16 -70 17 -200 2 -270 -4 -244 86 -383 43 -68 103 -158 131 -200
73 -106 92 -150 110 -249 14 -77 21 -92 65 -147 47 -57 50 -64 45 -108 -3 -41
-12 -56 -54 -101 -41 -44 -54 -67 -76 -138 -15 -47 -27 -97 -27 -111 0 -15 -4
-29 -9 -32 -5 -3 -12 -18 -16 -33 -3 -16 -33 -84 -66 -152 -54 -112 -59 -125
-45 -140 9 -9 20 -48 25 -86 6 -41 18 -80 31 -96 11 -16 20 -43 20 -61 l-1
-33 -14 25 c-13 22 -14 23 -14 5 0 -11 9 -45 20 -75 25 -72 26 -75 46 -210 9
-64 29 -150 45 -195 17 -44 34 -96 38 -115 6 -26 8 -15 5 40 -5 107 -8 125
-22 122 -8 -1 -13 9 -12 25 0 25 1 26 10 8 6 -13 8 17 5 92 -3 61 -9 120 -14
130 -5 10 -7 38 -3 63 4 25 4 59 0 75 -10 46 -10 173 0 180 11 6 18 -52 26
-215 3 -63 10 -176 15 -250 5 -74 9 -197 10 -273 l0 -137 32 -49 c27 -40 39
-50 68 -54 30 -4 39 0 63 26 15 18 32 48 37 69 15 54 2 197 -31 338 -17 68
-28 133 -26 145 4 19 5 19 12 -3 5 -16 13 -21 26 -17 11 4 25 -1 36 -14 10
-12 22 -21 29 -21 6 0 16 -11 22 -24 8 -19 6 -41 -9 -101 -25 -103 -25 -105
15 -105 30 0 37 6 71 61 l38 61 -18 74 c-19 80 -41 129 -88 188 -30 37 -30 39
-11 53 17 13 19 12 22 -7 2 -11 10 -33 18 -48 l14 -27 0 25 c-1 36 22 130 32
130 4 0 6 23 3 51 -3 32 -1 48 5 44 6 -3 10 1 10 9 0 8 -4 17 -9 20 -4 3 -11
19 -14 35 -4 17 -20 52 -36 78 -33 53 -24 70 14 28 35 -36 96 -153 75 -140
-16 10 -11 -11 5 -25 18 -15 28 2 24 41 -1 13 -1 40 0 59 l2 35 15 -45 c7 -25
14 -56 15 -70 1 -18 4 -13 10 15 12 56 7 146 -8 152 -7 3 -13 9 -13 14 0 5 6
8 13 7 8 -2 11 7 9 25 -1 15 2 27 8 27 5 0 10 9 10 21 0 11 -4 18 -9 15 -4 -3
-11 18 -15 47 -9 76 -8 87 9 87 8 0 15 5 15 11 0 6 7 8 16 5 14 -5 15 0 9 41
-4 27 -13 66 -21 88 -19 55 -18 69 4 60 9 -4 24 -8 32 -10 8 -2 23 -6 33 -10
20 -8 20 -6 7 55 -22 98 -19 93 -38 79 -14 -11 -15 -11 -4 1 15 17 15 69 1
144 -11 54 -13 56 -30 40 -10 -9 -16 -21 -13 -25 3 -5 1 -9 -4 -9 -17 0 -21
27 -6 48 12 17 12 21 -1 26 -8 3 -15 10 -15 16 0 6 4 9 9 6 5 -4 12 0 14 6 4
10 8 9 16 -2 8 -12 11 -6 11 25 0 49 -11 68 -33 59 -10 -3 -17 -1 -17 5 0 7 7
14 15 17 19 8 21 85 3 81 -7 -1 -14 9 -16 22 -3 15 0 21 8 16 8 -5 9 4 4 32
-4 21 -8 40 -10 42 -2 2 -16 -10 -32 -27 -22 -23 -32 -28 -41 -19 -14 14 -14
30 1 21 7 -5 10 -1 6 12 -3 10 3 27 12 37 17 17 18 17 36 0 17 -17 18 -17 11
0 -4 10 -7 28 -7 40 0 18 -2 20 -11 7 -8 -11 -9 -5 -5 25 4 31 1 44 -16 62
-22 24 -45 32 -32 11 4 -7 3 -8 -4 -4 -7 4 -12 13 -12 20 0 8 -9 16 -19 19
-15 3 -18 11 -14 26 3 13 11 20 19 17 7 -3 16 4 20 16 5 16 8 18 16 7 6 -9 7
-2 2 21 -8 43 -12 48 -25 30 -8 -11 -9 -4 -6 27 4 36 2 42 -17 48 -21 6 -21 6
-1 15 11 5 15 9 8 9 -6 1 -18 4 -27 7 -11 4 -16 1 -16 -10 0 -9 -3 -16 -7 -16
-9 0 -33 49 -33 67 0 7 -7 13 -15 13 -9 0 -12 6 -9 15 4 8 2 15 -4 15 -5 0
-12 8 -16 17 -3 10 -11 26 -18 35 -10 13 -9 22 2 44 8 14 21 29 30 32 8 3 26
16 39 29 22 22 23 26 10 51 -8 15 -22 33 -31 40 -11 8 -18 26 -18 46 0 17 -6
38 -12 44 -10 10 -10 15 1 21 12 8 11 19 -2 72 -9 35 -18 73 -21 84 -2 11 -4
6 -5 -12 0 -18 -5 -33 -9 -33 -5 0 -8 20 -8 44 1 24 5 42 10 38 5 -3 6 2 3 12
-4 10 -7 27 -7 37 0 13 -4 18 -11 13 -8 -5 -10 0 -6 17 4 14 2 38 -2 54 -6 20
-10 23 -10 11 -1 -11 -4 -16 -8 -13 -3 4 -13 -3 -21 -14 -12 -17 -16 -18 -23
-8 -7 11 -9 11 -9 -2 0 -9 -7 -22 -15 -29 -8 -7 -13 -16 -10 -20 3 -5 0 -12
-6 -16 -14 -8 -6 47 17 114 8 23 14 64 14 90 0 27 5 53 10 58 8 8 7 20 -1 40
l-12 29 -6 -25 c-8 -32 -41 -40 -41 -10 0 11 7 23 15 26 24 10 17 26 -7 20
-13 -3 -17 -3 -10 0 6 3 12 17 12 30 0 14 4 22 10 19 15 -9 12 8 -5 31 -8 10
-14 26 -15 34 0 12 2 13 9 1 6 -9 10 -3 13 22 4 38 1 57 -11 57 -5 0 -6 -11
-3 -25 3 -20 1 -24 -12 -19 -9 4 -16 14 -14 23 1 9 -1 21 -5 28 -4 6 -3 14 3
18 14 9 12 75 -3 105 -8 15 -12 51 -10 90 5 104 3 142 -8 159 -7 12 -8 3 -5
-29 l6 -45 -15 30 c-8 17 -14 23 -15 15 0 -8 -11 -24 -25 -34 -14 -10 -25 -27
-25 -37 0 -31 -30 -23 -31 9 -1 15 -2 34 -3 42 -2 20 22 70 34 70 6 0 10 -6
10 -14 0 -8 5 -18 11 -22 7 -4 10 4 9 22 -1 16 -1 38 0 49 1 20 1 20 9 0 6
-15 9 -7 15 31 5 40 1 64 -19 120 -14 38 -25 70 -25 71 0 2 -4 3 -8 3 -15 0
-4 -64 13 -76 15 -11 15 -14 -4 -33 -12 -12 -21 -25 -21 -31 0 -5 -9 -10 -21
-10 -15 0 -19 5 -15 15 13 35 17 141 7 169 -8 20 -8 31 -2 36 7 4 7 17 2 35
-5 17 -10 23 -10 15 -1 -9 -4 -10 -10 -5 -5 6 -12 39 -14 75 -3 36 -11 79 -18
95 -12 28 -13 29 -16 7 -3 -12 -13 -27 -24 -32 -10 -6 -19 -15 -19 -21 0 -11
-11 -23 -42 -47 -15 -12 -16 -11 -5 17 6 17 15 31 19 31 4 0 8 7 8 15 0 8 5
15 10 15 6 0 10 8 10 19 0 10 7 24 15 31 19 16 19 44 1 59 -11 9 -15 8 -20 -4
-10 -26 -28 -6 -21 25 7 32 -22 100 -42 100 -15 0 -17 -16 -3 -25 15 -9 12
-25 -4 -25 -20 0 -24 19 -14 60 16 60 16 89 1 83 -17 -7 -17 13 0 21 10 5 10
7 0 12 -7 3 -13 13 -13 22 0 10 -7 30 -15 46 -9 16 -13 36 -10 46 3 10 -9 31
-30 54 -19 21 -35 42 -35 46 0 4 -8 10 -17 13 -10 3 -38 18 -63 33 l-45 27 34
-36 c19 -20 32 -40 28 -43 -3 -3 -18 6 -32 22 -19 21 -28 25 -37 16 -25 -25
-86 -4 -143 48 -41 37 -151 111 -199 133 -48 22 -60 13 -54 -41 3 -35 1 -39
-14 -31 -9 5 -20 14 -23 19 -12 19 -26 10 -20 -11 5 -13 3 -19 -3 -15 -5 3
-13 22 -16 41 -7 34 -26 50 -26 21 0 -19 -30 -42 -38 -30 -4 5 -16 14 -27 20
-26 14 -45 66 -27 71 6 3 12 9 12 15 0 5 -9 6 -20 3 -20 -6 -28 9 -10 20 14 9
72 -34 64 -47 -4 -7 -2 -8 4 -4 6 4 24 0 40 -8 l29 -15 -15 33 c-8 19 -27 38
-46 46 -17 7 -45 23 -63 36 -36 27 -65 32 -57 9 4 -9 0 -15 -10 -15 -9 0 -16
7 -16 15 0 8 -5 15 -11 15 -7 0 -22 11 -35 25 -13 14 -27 25 -32 25 -5 0 -31
17 -58 37 -45 33 -47 34 -24 7 14 -16 34 -38 46 -49 21 -21 74 -106 74 -118 0
-4 -7 -7 -15 -7 -8 0 -15 4 -15 10 0 9 -65 107 -80 120 -3 3 -38 51 -77 108
l-72 102 7 58 c5 38 12 56 21 54 16 -3 71 29 71 43 0 6 16 10 36 10 45 -2 87
39 95 92 5 37 6 38 17 13 6 -14 12 -23 13 -20 3 9 10 55 10 73 0 9 4 15 10 12
5 -4 6 -18 3 -33 -4 -21 -3 -24 5 -12 14 19 14 130 0 150 -7 11 -8 3 -4 -27 5
-28 3 -43 -4 -43 -6 0 -11 13 -11 29 0 16 -5 42 -12 58 -13 31 -15 38 -17 53
0 6 -5 10 -11 10 -15 0 -50 33 -50 47 0 7 -6 12 -12 11 -8 -2 -12 6 -11 19 2
16 -2 21 -12 17 -11 -5 -13 -2 -9 9 4 12 -2 18 -21 23 -22 5 -32 2 -46 -17
-14 -18 -19 -20 -19 -8 0 9 -11 22 -25 29 -14 7 -25 17 -25 22 0 5 -5 6 -10 3
-14 -9 -51 4 -44 16 3 5 9 7 14 4 4 -3 11 1 13 7 4 9 8 10 14 2 11 -14 163
-50 163 -38 0 3 -16 12 -36 20 -54 23 -33 29 28 9 59 -20 68 -28 68 -65 0 -36
23 -75 42 -72 9 1 18 -5 20 -15 2 -10 5 25 5 77 1 60 7 108 17 130 11 25 15
29 16 15 1 -19 1 -19 11 -1 11 18 17 201 9 261 -2 17 0 41 4 54 6 18 5 22 -4
16 -9 -6 -11 -4 -5 5 4 6 2 29 -5 49 -11 35 -10 40 19 86 18 28 31 62 31 79 0
34 -34 116 -53 128 -8 5 -8 8 -1 8 17 0 0 75 -29 135 -14 28 -28 66 -32 85 -9
41 -69 170 -102 219 -13 20 -45 50 -71 68 -64 44 -103 75 -124 96 -10 9 -22
17 -27 17 -14 0 -21 41 -9 60 9 13 8 26 -2 49 -7 17 -16 31 -20 31 -4 0 -10 9
-13 19 -6 24 -47 49 -47 28 0 -7 6 -19 13 -26 10 -11 10 -14 0 -18 -7 -3 -13
-20 -13 -39 0 -19 -5 -34 -11 -34 -7 0 -10 14 -7 35 4 31 -5 48 -14 26 -2 -5
-14 -4 -28 2 l-25 10 33 7 c44 10 44 11 16 43 -13 15 -24 25 -24 22z m-280
-85 c0 -5 -5 -10 -11 -10 -5 0 -7 5 -4 10 3 6 8 10 11 10 2 0 4 -4 4 -10z
m-73 -44 c2 -2 0 -7 -6 -11 -6 -3 -11 -2 -11 4 0 6 -7 8 -15 5 -8 -4 -15 -1
-15 4 0 10 37 8 47 -2z m477 -51 c3 -8 1 -15 -4 -15 -6 0 -10 7 -10 15 0 8 2
15 4 15 2 0 6 -7 10 -15z m-616 -37 c19 -19 14 -33 -13 -33 -14 0 -25 3 -25 8
0 4 5 7 11 7 6 0 9 7 5 15 -7 18 5 20 22 3z m232 -28 c0 -5 5 -10 11 -10 7 0
18 -8 26 -17 8 -10 12 -12 8 -6 -4 8 -1 11 8 7 17 -6 29 -55 17 -67 -4 -5 -11
-4 -14 2 -4 6 -19 11 -34 11 l-27 -1 24 -13 c20 -11 21 -14 6 -19 -22 -9 -53
-9 -58 1 -2 4 -7 21 -11 37 -5 22 -4 26 4 15 8 -12 10 -9 10 13 0 16 4 26 9
23 5 -4 7 3 4 14 -3 11 0 20 6 20 6 0 11 -4 11 -10z m150 2 c0 -4 -9 -8 -20
-8 -11 0 -20 4 -20 8 0 4 9 8 20 8 11 0 20 -4 20 -8z m101 -12 c11 0 18 -4 15
-9 -3 -5 -25 -7 -49 -4 -31 3 -38 2 -27 -6 11 -8 3 -10 -35 -9 -36 1 -41 2
-17 5 17 2 32 8 32 13 0 10 30 19 48 14 8 -2 23 -4 33 -4z m-571 -220 c0 -5
-5 -10 -11 -10 -5 0 -7 5 -4 10 3 6 8 10 11 10 2 0 4 -4 4 -10z m-10 -58 c0
-10 -7 -19 -15 -19 -18 0 -19 9 -3 25 16 16 18 15 18 -6z m295 -6 c13 -9 16
-19 11 -32 -8 -18 -8 -18 -16 1 -5 11 -9 14 -9 6 -1 -7 10 -24 24 -37 14 -13
25 -34 25 -49 0 -25 -14 -34 -25 -15 -10 16 -37 -2 -50 -33 -13 -32 -52 -45
-68 -23 -5 6 -6 -1 -3 -16 7 -32 -8 -45 -28 -25 -18 17 -34 93 -18 83 5 -3 15
7 21 24 5 17 15 30 20 30 6 0 11 8 11 18 0 11 9 27 20 37 16 15 22 15 35 5 13
-11 15 -9 15 14 0 29 8 32 35 12z m648 -168 c14 -12 14 -15 2 -32 -14 -19 -15
-19 -15 6 0 15 -6 29 -12 31 -7 3 -8 6 -2 6 5 1 18 -5 27 -11z m-23 -18 c0 -5
-9 -10 -20 -10 -11 0 -20 5 -20 10 0 6 9 10 20 10 11 0 20 -4 20 -10z m-1067
-66 c-4 -12 -8 -13 -14 -3 -9 15 -2 32 11 24 5 -3 6 -13 3 -21z m20 -29 c-3
-9 -8 -14 -10 -11 -3 3 -2 9 2 15 9 16 15 13 8 -4z m1157 -132 l-8 -28 -2 25
c-1 14 -2 28 -1 33 0 4 -4 7 -9 7 -7 0 -6 8 1 23 l12 22 8 -27 c4 -16 4 -40
-1 -55z m-60 48 c0 -15 -32 -23 -44 -11 -8 8 -6 9 7 5 10 -4 17 -2 17 4 0 6 5
11 10 11 6 0 10 -4 10 -9z m-742 -8 c-23 -6 -23 -15 1 -30 11 -7 22 -26 26
-43 4 -17 15 -36 26 -43 10 -6 19 -19 19 -27 0 -11 -3 -11 -8 -3 -6 9 -15 8
-40 -4 -30 -14 -45 -43 -22 -43 6 0 10 7 10 15 0 17 16 20 25 5 4 -6 10 -8 14
-6 4 3 13 1 21 -4 15 -9 16 -9 -35 -25 -8 -2 -15 -9 -15 -14 0 -6 7 -8 15 -5
8 4 15 2 15 -3 0 -6 18 -5 45 1 32 8 45 15 45 28 0 23 18 23 42 1 17 -15 18
-15 18 0 0 23 31 22 61 -2 13 -10 35 -17 49 -15 14 1 35 3 47 3 14 1 28 12 36
28 14 26 15 26 21 5 8 -24 21 -28 32 -10 5 8 10 6 15 -8 14 -35 10 -44 -21
-44 -16 0 -30 -4 -30 -10 0 -5 -7 -10 -15 -10 -8 0 -15 -7 -15 -16 0 -13 5
-12 34 5 40 25 66 27 66 6 0 -9 -6 -15 -12 -13 -21 4 -56 -12 -62 -28 -3 -9
-1 -25 5 -36 11 -20 11 -20 34 2 23 21 23 21 19 2 -4 -11 -19 -23 -37 -29 -18
-5 -33 -15 -33 -23 -1 -8 -2 -17 -3 -20 -9 -23 -7 -77 2 -83 9 -6 9 -10 0 -13
-7 -3 -9 -12 -6 -21 6 -16 -12 -33 -36 -33 -10 0 -12 8 -8 30 4 16 2 32 -3 35
-6 3 -10 2 -10 -4 0 -5 -7 -17 -16 -25 -13 -14 -17 -14 -30 -2 -8 8 -14 22
-14 30 0 9 -4 16 -10 16 -5 0 -10 -6 -10 -12 0 -9 -4 -8 -10 2 -6 10 -10 11
-10 3 0 -7 -5 -13 -11 -13 -6 0 -8 7 -5 16 3 8 2 12 -4 9 -6 -3 -10 2 -10 13
0 15 -5 18 -25 14 -22 -4 -25 -1 -25 22 0 14 -4 26 -10 26 -5 0 -10 -5 -10
-11 0 -8 -5 -8 -15 1 -8 7 -15 23 -15 36 0 13 -5 24 -11 24 -6 0 -8 -7 -5 -16
7 -19 -12 -47 -25 -38 -14 9 -11 46 4 39 6 -4 3 0 -7 9 -16 13 -17 18 -6 31 7
8 10 18 6 22 -3 3 -6 1 -6 -6 0 -7 -4 -9 -10 -6 -10 6 14 51 35 68 6 5 4 7 -5
6 -52 -5 -65 2 -83 41 -9 22 -17 49 -17 59 0 11 -4 23 -10 26 -5 3 -10 15 -10
25 0 13 -5 17 -15 14 -25 -10 -28 23 -4 55 17 24 30 31 53 30 17 -1 23 -3 14
-6z m-512 -62 c-10 -36 -14 -40 -25 -28 -9 12 -9 16 1 21 10 5 10 7 1 12 -17
8 -4 34 13 27 8 -3 14 1 14 8 0 7 2 10 5 8 2 -3 -2 -24 -9 -48z m84 39 c12 -6
17 -19 15 -40 -2 -32 -15 -55 -15 -27 0 11 -8 17 -25 17 -38 0 -35 50 3 59 2
1 12 -3 22 -9z m179 -11 c-16 -10 -23 -4 -14 10 3 6 11 8 17 5 6 -4 5 -9 -3
-15z m-89 -9 c0 -20 44 -60 67 -60 20 0 23 -4 18 -20 -5 -15 -1 -22 17 -29 13
-6 17 -10 11 -10 -7 -1 -14 -13 -14 -28 l-2 -28 -4 29 c-3 20 -7 25 -13 16 -6
-10 -11 -8 -19 9 -16 29 -41 27 -41 -3 0 -45 -17 -36 -23 12 -3 26 -9 64 -12
85 -4 24 -3 37 4 37 6 0 11 -4 11 -10z m67 -26 c-9 -9 -28 6 -21 18 4 6 10 6
17 -1 6 -6 8 -13 4 -17z m-177 -18 c0 -3 -4 -8 -10 -11 -5 -3 -10 -1 -10 4 0
6 5 11 10 11 6 0 10 -2 10 -4z m62 -35 c11 6 22 8 25 6 2 -3 -6 -11 -19 -18
-32 -17 -38 -28 -38 -75 0 -25 -6 -47 -15 -54 -13 -11 -15 -8 -15 21 -1 38
-29 100 -30 65 0 -11 -3 -16 -6 -13 -7 6 14 67 23 67 2 0 13 -5 24 -10 15 -9
19 -7 20 7 0 10 3 13 6 6 3 -10 10 -10 25 -2z m1136 -41 c6 0 12 -6 12 -14 0
-20 -43 -29 -56 -11 -7 10 -14 11 -21 4 -6 -6 -21 -9 -34 -7 -22 4 -22 6 11
21 19 9 44 15 55 12 11 -3 26 -5 33 -5z m-375 -27 c-7 -2 -21 -2 -30 0 -10 3
-4 5 12 5 17 0 24 -2 18 -5z m-636 -58 c-3 -11 -2 -29 3 -40 7 -18 9 -18 19 9
14 36 26 27 16 -11 -5 -15 -8 -31 -7 -34 1 -4 -8 -5 -18 -2 -11 3 -28 -1 -38
-8 -15 -13 -16 -12 -4 3 14 18 8 57 -10 69 -6 4 -7 20 -3 38 7 31 7 32 27 15
11 -11 17 -26 15 -39z m-87 -4 c0 -6 -4 -13 -10 -16 -5 -3 -10 1 -10 9 0 9 5
16 10 16 6 0 10 -4 10 -9z m-143 -33 c-3 -7 -5 -2 -5 12 0 14 2 19 5 13 2 -7
2 -19 0 -25z m523 22 c0 -5 -5 -10 -11 -10 -5 0 -7 5 -4 10 3 6 8 10 11 10 2
0 4 -4 4 -10z m791 0 c11 0 19 -4 19 -10 0 -5 -7 -10 -16 -10 -11 0 -13 -6 -9
-19 5 -18 4 -18 -37 -4 -34 12 -50 13 -75 3 -23 -8 -38 -8 -50 -1 -17 10 -17
10 2 11 l20 1 -20 9 c-16 6 -17 9 -5 13 30 12 66 15 109 11 24 -2 52 -4 62 -4z
m46 -22 c-3 -8 -6 -5 -6 6 -1 11 2 17 5 13 3 -3 4 -12 1 -19z m-1177 -54 c0
-13 -29 -34 -35 -24 -3 5 -17 10 -31 10 -13 0 -24 5 -24 10 0 6 20 10 45 10
25 0 45 -3 45 -6z m70 -14 c0 -5 -5 -10 -11 -10 -5 0 -7 5 -4 10 3 6 8 10 11
10 2 0 4 -4 4 -10z m834 -200 c3 0 6 7 6 15 0 20 27 19 38 -1 8 -15 10 -15 15
0 8 19 33 21 44 4 4 -7 15 -13 23 -13 19 0 43 -50 35 -75 -6 -18 -7 -18 -41 5
-20 14 -52 27 -73 31 -20 4 -40 9 -46 13 -5 3 -20 4 -32 2 -25 -3 -31 17 -11
37 10 10 15 10 24 -3 6 -8 14 -15 18 -15z m-19 -170 c3 -5 1 -10 -4 -10 -6 0
-11 5 -11 10 0 6 2 10 4 10 3 0 8 -4 11 -10z m-788 -42 c-3 -8 -6 -5 -6 6 -1
11 2 17 5 13 3 -3 4 -12 1 -19z m-115 -130 c-7 -7 -12 -8 -12 -2 0 14 12 26
19 19 2 -3 -1 -11 -7 -17z m170 -23 c10 -23 12 -37 5 -42 -6 -3 -7 -1 -3 5 4
7 1 12 -8 12 -10 0 -13 6 -9 17 4 10 2 14 -5 9 -13 -8 -26 10 -17 24 11 18 20
11 37 -25z m81 -96 c1 3 10 0 21 -6 12 -7 15 -13 7 -17 -6 -4 -11 -2 -11 3 0
6 -5 11 -10 11 -17 0 10 -42 30 -47 10 -3 21 -17 25 -31 9 -35 8 -37 -13 -37
-25 -1 -83 38 -77 52 2 7 -5 17 -15 23 -26 14 -25 30 0 37 15 4 19 11 15 27
-6 21 -6 21 10 1 9 -11 17 -18 18 -16z m894 -21 c-3 -8 -6 -5 -6 6 -1 11 2 17
5 13 3 -3 4 -12 1 -19z m-777 -53 c0 -3 -9 -5 -20 -5 -15 0 -20 7 -20 25 l0
25 20 -20 c11 -11 20 -22 20 -25z m0 -63 c0 -13 -12 -22 -22 -16 -10 6 -1 24
13 24 5 0 9 -4 9 -8z m51 -65 c-12 -12 -31 0 -31 19 0 12 3 12 20 2 11 -7 16
-16 11 -21z m114 -57 c3 -5 1 -10 -4 -10 -6 0 -11 5 -11 10 0 6 2 10 4 10 3 0
8 -4 11 -10z m365 -50 c0 -12 -36 -31 -43 -24 -3 3 -4 11 -1 18 5 14 44 19 44
6z m592 -578 c85 -30 96 -39 108 -80 13 -47 13 -62 0 -62 -5 0 -9 8 -8 18 3
39 -3 62 -16 62 -8 0 -17 7 -20 16 -3 8 -11 12 -17 9 -5 -4 -17 1 -24 11 -12
16 -16 16 -24 5 -7 -11 -10 -10 -18 4 -6 10 -19 19 -29 20 -32 4 -64 17 -64
25 0 9 22 4 112 -28z m446 -133 c15 -18 34 -45 43 -62 13 -24 17 -27 22 -13 4
10 0 30 -8 46 -19 37 -19 46 0 30 8 -7 15 -9 16 -4 2 26 18 -37 17 -71 0 -34
-1 -36 -8 -15 -7 24 -7 24 -18 -10 -5 -19 -11 -27 -11 -18 -1 10 -10 22 -22
28 -11 6 -18 17 -16 23 4 12 -36 75 -57 89 -7 5 -6 8 2 8 7 0 25 -14 40 -31z
m-319 -69 c0 -9 -4 -8 -9 5 -5 11 -9 27 -9 35 0 9 4 8 9 -5 5 -11 9 -27 9 -35z
m32 25 c0 6 12 -28 26 -75 34 -118 38 -134 26 -127 -6 4 -20 44 -32 89 -13 46
-27 91 -32 100 -12 23 -11 37 1 18 5 -8 10 -10 11 -5z m252 -10 c-3 -9 -8 -14
-10 -11 -3 3 -2 9 2 15 9 16 15 13 8 -4z m-273 -99 c0 -39 -6 -30 -13 19 -4
27 -3 35 3 25 5 -8 10 -28 10 -44z m316 32 c11 -37 26 -52 35 -36 6 8 9 2 9
-17 0 -17 4 -35 9 -40 12 -15 41 -127 40 -161 l-1 -29 -13 35 c-7 19 -14 46
-15 60 -1 14 -4 19 -7 12 -3 -9 -9 -10 -18 -2 -18 15 -37 -12 -38 -55 -1 -21
-4 -30 -9 -22 -11 18 -10 75 3 82 6 5 8 22 4 46 -6 33 -4 38 9 33 14 -5 14 -3
3 22 -7 16 -20 44 -30 62 -15 27 -15 32 -3 32 8 0 18 -10 22 -22z m91 -55 c-3
-10 -5 -2 -5 17 0 19 2 27 5 18 2 -10 2 -26 0 -35z m-398 -80 c-1 -37 -1 -37
-8 -8 -7 28 -5 45 5 45 2 0 3 -17 3 -37z m94 -43 c8 -37 73 -181 106 -235 14
-22 50 -66 80 -99 31 -32 49 -56 41 -54 -8 3 -23 -4 -34 -14 -19 -17 -20 -17
-49 35 -15 28 -40 77 -54 107 -14 30 -40 87 -58 125 -41 85 -63 147 -57 163 6
19 19 5 25 -28z m-86 -102 c-2 -13 -4 -5 -4 17 -1 22 1 32 4 23 2 -10 2 -28 0
-40z m327 -63 l6 -30 -15 25 c-8 14 -14 34 -14 45 0 16 1 17 8 5 5 -8 11 -28
15 -45z m-317 -77 c-2 -18 -4 -4 -4 32 0 36 2 50 4 33 2 -18 2 -48 0 -65z
m359 -86 c-5 -5 -26 59 -25 77 0 9 7 -4 14 -29 8 -24 13 -46 11 -48z m246 -54
c-8 -8 -9 -4 -5 13 4 13 8 18 11 10 2 -7 -1 -18 -6 -23z m-262 -29 c0 -6 -4
-7 -10 -4 -5 3 -10 11 -10 16 0 6 5 7 10 4 6 -3 10 -11 10 -16z m230 -8 c0 -6
-4 -13 -10 -16 -5 -3 -10 1 -10 9 0 9 5 16 10 16 6 0 10 -4 10 -9z m-553 -163
c-3 -7 -5 -2 -5 12 0 14 2 19 5 13 2 -7 2 -19 0 -25z m-10 -170 c-3 -8 -6 -5
-6 6 -1 11 2 17 5 13 3 -3 4 -12 1 -19z m-10 -110 c-3 -8 -6 -5 -6 6 -1 11 2
17 5 13 3 -3 4 -12 1 -19z m-148 -63 l0 -20 -9 20 c-5 11 -9 29 -9 40 l0 20 9
-20 c5 -11 9 -29 9 -40z m138 -17 c-3 -7 -5 -2 -5 12 0 14 2 19 5 13 2 -7 2
-19 0 -25z m688 -8 c3 -6 -1 -7 -9 -4 -18 7 -21 14 -7 14 6 0 13 -4 16 -10z
m17 -42 c-7 -7 -12 -8 -12 -2 0 14 12 26 19 19 2 -3 -1 -11 -7 -17z m-627
-138 c3 -5 2 -10 -4 -10 -5 0 -13 5 -16 10 -3 6 -2 10 4 10 5 0 13 -4 16 -10z
m9 -56 c3 -8 11 -12 17 -9 7 5 9 -1 7 -16 -2 -17 -11 -25 -28 -27 -20 -3 -23
-1 -12 9 14 15 16 43 2 34 -5 -3 -10 1 -10 9 0 21 16 21 24 0z m-207 -86 c-3
-8 -6 -5 -6 6 -1 11 2 17 5 13 3 -3 4 -12 1 -19z m250 -51 c7 -5 11 -12 8 -18
-9 -13 -35 16 -34 38 0 14 2 15 6 3 3 -8 12 -19 20 -23z m-207 -42 c0 -5 -5
-3 -10 5 -5 8 -10 20 -10 25 0 6 5 3 10 -5 5 -8 10 -19 10 -25z m20 -50 c0 -5
-5 -3 -10 5 -5 8 -10 20 -10 25 0 6 5 3 10 -5 5 -8 10 -19 10 -25z m202 -17
c-9 -9 -12 -7 -12 12 0 19 3 21 12 12 9 -9 9 -15 0 -24z m77 -60 c1 -16 -3
-28 -9 -28 -5 0 -10 21 -9 48 0 35 3 42 9 27 5 -11 9 -32 9 -47z m-57 20 c-7
-7 -12 -8 -12 -2 0 14 12 26 19 19 2 -3 -1 -11 -7 -17z m81 -33 c4 -8 2 -17
-3 -20 -6 -4 -10 3 -10 14 0 25 6 27 13 6z m614 -27 c-3 -8 -6 -5 -6 6 -1 11
2 17 5 13 3 -3 4 -12 1 -19z m148 -928 c3 -5 -1 -10 -10 -10 -9 0 -13 5 -10
10 3 6 8 10 10 10 2 0 7 -4 10 -10z m108 -40 c-3 -11 0 -20 6 -20 6 0 11 -4
11 -10 0 -5 -7 -7 -15 -4 -15 6 -20 35 -8 47 10 11 11 8 6 -13z m-43 -12 c0
-19 -2 -20 -10 -8 -13 19 -13 30 0 30 6 0 10 -10 10 -22z m-720 -143 c0 -16 6
-25 16 -25 9 0 14 -6 11 -12 -6 -17 28 -84 46 -91 8 -3 18 -22 22 -43 4 -21
16 -52 28 -69 31 -42 47 -75 47 -94 0 -9 5 -22 12 -29 7 -7 9 -12 4 -12 -15 0
-38 32 -40 55 0 14 -6 25 -12 25 -6 0 -19 19 -30 43 -10 23 -42 77 -71 119
-54 81 -56 86 -54 131 1 34 21 36 21 2z m-39 -12 c-8 -15 -10 -15 -11 -2 0 17
10 32 18 25 2 -3 -1 -13 -7 -23z m869 -3 c0 -5 -4 -10 -10 -10 -5 0 -10 5 -10
10 0 6 5 10 10 10 6 0 10 -4 10 -10z m46 -195 c-3 -9 -10 -13 -16 -10 -6 4 -5
11 3 20 15 16 22 11 13 -10z m-81 -198 c10 -8 14 -17 9 -20 -5 -3 -21 3 -34
14 -29 22 -6 28 25 6z m149 -171 c-6 -25 -24 -37 -24 -16 0 13 23 50 28 46 1
-2 0 -15 -4 -30z m16 -48 c0 -7 -4 -19 -9 -27 -11 -17 -25 3 -17 24 7 18 26
20 26 3z m-65 -176 c-7 -8 -35 7 -35 18 0 6 7 6 20 -2 10 -7 17 -14 15 -16z
m-115 -31 c0 -11 -4 -23 -10 -26 -6 -4 -10 5 -10 19 0 14 5 26 10 26 6 0 10
-9 10 -19z m-549 -21 c-7 -4 -11 -11 -10 -16 1 -5 1 -16 0 -23 -2 -21 -24 3
-26 28 -1 13 5 19 23 19 14 0 19 -4 13 -8z m-31 -91 c0 -6 -4 -7 -10 -4 -5 3
-10 11 -10 16 0 6 5 7 10 4 6 -3 10 -11 10 -16z m157 -21 c-3 -8 -6 -5 -6 6
-1 11 2 17 5 13 3 -3 4 -12 1 -19z m-370 -40 c-3 -7 -5 -2 -5 12 0 14 2 19 5
13 2 -7 2 -19 0 -25z m380 -111 c1 -75 -1 -101 -6 -79 -5 18 -11 36 -14 39 -4
3 -2 14 3 23 6 12 6 29 -1 47 -6 20 -7 38 0 56 6 15 12 27 13 27 2 0 4 -51 5
-113z m280 1 c-3 -8 -6 -5 -6 6 -1 11 2 17 5 13 3 -3 4 -12 1 -19z m183 -168
c0 -5 -4 -10 -10 -10 -5 0 -10 5 -10 10 0 6 5 10 10 10 6 0 10 -4 10 -10z
m-793 -62 c-2 -13 -4 -3 -4 22 0 25 2 35 4 23 2 -13 2 -33 0 -45z m353 9 c0
-5 -4 -5 -10 -2 -5 3 -10 14 -10 23 0 15 2 15 10 2 5 -8 10 -19 10 -23z m-293
-149 c-3 -8 -6 -5 -6 6 -1 11 2 17 5 13 3 -3 4 -12 1 -19z m-25 -208 c-4 -50
-22 -72 -22 -26 0 23 16 76 22 76 2 0 1 -22 0 -50z m475 8 c-3 -8 -6 -5 -6 6
-1 11 2 17 5 13 3 -3 4 -12 1 -19z m-170 -40 c-3 -8 -6 -5 -6 6 -1 11 2 17 5
13 3 -3 4 -12 1 -19z m186 2 c3 -11 1 -20 -4 -20 -5 0 -9 9 -9 20 0 11 2 20 4
20 2 0 6 -9 9 -20z m-1050 -299 c6 -24 -7 -46 -22 -37 -12 8 -15 39 -4 49 11
12 21 8 26 -12z m1207 -1 c0 -13 -7 -20 -20 -20 -23 0 -26 10 -8 28 18 18 28
15 28 -8z m-1260 -10 c0 -11 5 -20 10 -20 6 0 10 -11 10 -25 0 -30 -15 -33
-30 -6 -13 25 -13 71 0 71 6 0 10 -9 10 -20z m1124 -80 c-4 -14 -6 -41 -5 -60
3 -31 1 -33 -14 -20 -15 13 -16 10 -11 -26 5 -33 5 -35 -4 -15 -8 18 -6 46 6
109 15 71 19 81 26 61 5 -13 6 -35 2 -49z m-730 -86 c23 -9 20 -24 -4 -24 -11
0 -20 7 -20 15 0 17 2 18 24 9z"/>
<path d="M5190 8319 c0 -5 5 -7 10 -4 6 3 10 8 10 11 0 2 -4 4 -10 4 -5 0 -10
-5 -10 -11z"/>
<path d="M5531 7743 c-13 -14 -12 -17 2 -28 9 -7 17 -17 17 -24 0 -6 7 -11 15
-11 9 0 15 -9 15 -25 0 -14 5 -25 10 -25 6 0 10 4 10 9 0 5 3 17 7 27 5 13 3
15 -7 9 -9 -6 -11 -4 -6 4 5 7 1 18 -10 25 -11 8 -15 21 -11 35 6 26 -20 29
-42 4z"/>
<path d="M5175 6890 c-3 -5 1 -10 9 -10 9 0 16 5 16 10 0 6 -4 10 -9 10 -6 0
-13 -4 -16 -10z"/>
<path d="M5120 8760 c0 -5 5 -10 10 -10 6 0 10 5 10 10 0 6 -4 10 -10 10 -5 0
-10 -4 -10 -10z"/>
<path d="M5750 8746 c0 -14 4 -27 8 -30 5 -3 6 8 4 25 -5 35 -12 38 -12 5z"/>
<path d="M4876 8585 c-13 -20 -14 -25 -2 -25 7 0 16 11 18 25 3 14 4 25 3 25
-2 0 -10 -11 -19 -25z"/>
<path d="M4798 8589 c-10 -5 -18 -14 -18 -19 0 -14 28 -1 34 16 6 16 6 16 -16
3z"/>
<path d="M4770 8500 c0 -5 4 -10 10 -10 5 0 8 -12 8 -27 -1 -16 1 -39 6 -53 5
-19 5 -21 -3 -10 -9 12 -11 11 -11 -7 0 -16 4 -21 15 -17 10 4 7 -7 -10 -39
-14 -24 -23 -51 -19 -60 3 -10 -2 -20 -15 -27 -17 -9 -21 -8 -21 5 0 22 4 30
14 27 5 -2 5 5 1 15 -9 23 -9 30 4 73 9 30 8 32 -3 18 -17 -23 -26 -23 -26 2
0 27 -13 25 -27 -5 -7 -17 -8 -23 0 -18 7 4 8 0 2 -13 -23 -54 -43 -119 -38
-127 9 -14 30 26 38 71 7 43 18 54 29 26 3 -9 2 -12 -5 -9 -6 4 -9 1 -8 -6 4
-23 -19 -68 -47 -94 -23 -21 -25 -28 -19 -69 9 -55 21 -52 31 7 5 33 8 38 14
22 4 -11 4 -29 0 -40 -19 -55 -36 -86 -51 -90 -22 -7 -32 -32 -13 -32 8 0 14
4 14 9 0 4 7 8 15 8 8 0 15 7 15 15 0 8 4 15 9 15 9 0 24 38 22 53 -1 5 8 21
19 37 11 15 20 33 20 38 0 6 9 26 20 45 12 19 20 39 18 43 -2 9 13 36 52 94 9
14 20 34 24 45 5 15 9 16 15 6 6 -9 11 -10 15 -2 4 6 2 11 -4 11 -7 0 -9 8 -5
21 4 13 3 19 -2 16 -6 -4 -19 2 -29 12 -23 21 -74 36 -74 21z m-44 -326 c-12
-31 -22 -12 -12 22 9 28 12 31 14 14 2 -12 1 -28 -2 -36z"/>
<path d="M4721 8469 c-13 -38 -13 -39 -3 -39 14 0 31 46 22 59 -5 9 -11 2 -19
-20z"/>
<path d="M4915 8420 c-3 -5 -1 -10 4 -10 6 0 11 5 11 10 0 6 -2 10 -4 10 -3 0
-8 -4 -11 -10z"/>
<path d="M4845 8370 c-3 -5 -3 -15 1 -22 4 -6 3 -8 -4 -4 -15 9 -26 -14 -13
-27 9 -9 16 -6 31 12 10 14 16 31 13 38 -6 15 -19 17 -28 3z"/>
<path d="M4626 8302 c-4 -12 -11 -20 -16 -17 -5 3 -10 -14 -12 -37 -2 -26 -8
-42 -15 -41 -13 3 -37 -60 -30 -80 2 -6 9 5 16 26 7 20 17 37 23 37 6 0 7 -7
4 -16 -3 -8 -2 -12 4 -9 6 3 10 20 10 36 0 20 4 28 12 23 8 -5 9 0 6 14 -4 12
-3 22 2 22 13 0 18 23 10 45 -7 19 -7 19 -14 -3z"/>
<path d="M4803 8268 c-13 -22 -14 -48 0 -43 6 3 13 16 13 30 2 28 -1 31 -13
13z"/>
<path d="M4567 8243 c-4 -3 -7 -11 -7 -17 0 -6 5 -5 12 2 6 6 9 14 7 17 -3 3
-9 2 -12 -2z"/>
<path d="M4746 8148 c-24 -57 -28 -78 -17 -78 6 0 11 11 11 24 0 13 6 26 14
29 15 6 28 57 14 57 -5 0 -15 -15 -22 -32z"/>
<path d="M4594 8135 c-3 -8 -4 -20 -2 -27 3 -7 7 -1 10 15 6 29 1 36 -8 12z"/>
<path d="M4607 8108 c-14 -20 -18 -21 -26 -8 -7 9 -11 10 -11 3 0 -6 5 -15 10
-18 6 -3 10 -16 11 -28 0 -16 6 -10 20 22 22 49 20 63 -4 29z"/>
<path d="M4626 8074 c-4 -10 -1 -14 6 -12 15 5 23 28 10 28 -5 0 -13 -7 -16
-16z"/>
<path d="M4551 8043 c1 -34 2 -35 9 -13 11 36 11 50 0 50 -5 0 -10 -17 -9 -37z"/>
<path d="M4566 7999 c-9 -45 -7 -92 4 -109 7 -12 10 -8 10 15 0 17 3 41 6 55
4 20 3 22 -5 10 -9 -13 -11 -13 -11 2 0 9 5 20 10 23 12 8 13 35 1 35 -5 0
-11 -14 -15 -31z"/>
<path d="M4605 7969 c-9 -16 -15 -45 -12 -62 3 -31 3 -31 11 10 5 24 15 48 22
54 16 13 18 29 4 29 -5 0 -17 -14 -25 -31z"/>
<path d="M4608 7878 c-2 -7 2 -38 8 -68 l12 -55 1 55 c1 55 -12 96 -21 68z"/>
<path d="M4590 7771 c0 -12 5 -21 10 -21 6 0 10 6 10 14 0 8 -4 18 -10 21 -5
3 -10 -3 -10 -14z"/>
<path d="M4612 7735 c-10 -12 -10 -24 -1 -57 6 -24 11 -74 10 -111 -2 -52 1
-67 10 -61 9 5 10 0 6 -17 -3 -13 -2 -31 3 -39 5 -8 10 -10 10 -5 0 6 7 1 16
-10 13 -17 16 -18 24 -5 15 24 11 -2 -5 -30 -19 -33 -19 -43 1 -36 13 5 15 1
10 -17 -3 -14 0 -32 8 -43 13 -17 14 -15 13 26 -2 38 1 45 16 43 17 -1 18 5
12 70 -4 40 -12 75 -19 80 -8 5 -7 9 2 15 14 9 7 62 -8 62 -4 0 -18 16 -31 35
-13 19 -28 35 -33 35 -9 0 -3 -64 9 -95 7 -16 6 -18 -6 -7 -7 6 -19 33 -25 60
-10 39 -10 48 2 55 19 11 18 31 -1 23 -12 -4 -14 0 -9 19 7 28 4 30 -14 10z"/>
<path d="M4875 7510 c3 -5 8 -10 11 -10 2 0 4 5 4 10 0 6 -5 10 -11 10 -5 0
-7 -4 -4 -10z"/>
<path d="M4833 7444 c-7 -3 -9 -12 -6 -20 4 -12 8 -12 19 3 12 17 13 16 14 -6
0 -19 3 -22 12 -13 8 8 8 15 -2 27 -13 16 -17 17 -37 9z"/>
<path d="M4985 7360 c-3 -5 -1 -10 4 -10 6 0 11 5 11 10 0 6 -2 10 -4 10 -3 0
-8 -4 -11 -10z"/>
<path d="M4680 7288 c0 -16 4 -28 9 -28 18 0 20 17 6 36 -14 18 -14 18 -15 -8z"/>
<path d="M4950 7291 c0 -6 4 -13 10 -16 6 -3 7 1 4 9 -7 18 -14 21 -14 7z"/>
<path d="M6093 7225 c0 -22 2 -30 4 -17 2 12 2 30 0 40 -3 9 -5 -1 -4 -23z"/>
<path d="M4710 6843 c0 -21 5 -44 11 -50 8 -8 6 -19 -5 -41 -9 -17 -16 -39
-16 -48 0 -10 -3 -15 -6 -11 -9 9 -53 -34 -48 -47 2 -7 -12 -31 -32 -55 -28
-32 -39 -39 -46 -29 -7 10 -11 10 -14 1 -3 -7 -12 -9 -20 -6 -18 7 -31 -26
-14 -37 28 -18 -22 -109 -76 -138 -17 -9 -30 -10 -43 -3 -12 7 -28 7 -48 -1
-17 -6 -37 -8 -47 -5 -17 7 -23 57 -6 57 6 0 8 12 5 28 -6 25 -5 25 8 10 17
-21 37 -23 59 -5 14 11 14 15 -2 40 -16 26 -18 27 -23 8 -6 -25 -27 -28 -27
-5 0 14 -1 14 -16 0 -18 -19 -34 -21 -34 -4 0 9 -3 9 -11 1 -6 -6 -18 -9 -25
-6 -8 3 -14 0 -14 -6 0 -7 -6 -11 -12 -10 -41 5 -78 -2 -78 -16 0 -7 6 -18 13
-22 6 -4 12 -14 13 -20 3 -42 4 -43 29 -37 15 4 25 2 25 -5 0 -6 -9 -11 -20
-11 -21 0 -27 -15 -10 -25 6 -3 10 -18 10 -33 0 -39 -14 -18 -55 85 l-37 92
-26 -19 c-15 -10 -36 -20 -47 -22 -11 -2 -26 -9 -33 -15 -15 -14 -32 -17 -32
-5 0 9 -127 8 -136 -1 -4 -4 -18 -7 -31 -7 -13 0 -23 -3 -23 -8 0 -10 -92 -2
-107 10 -21 17 -43 1 -43 -31 0 -61 -46 -43 -69 27 -18 54 -37 76 -58 68 -17
-7 -17 -8 0 -17 12 -7 15 -17 11 -35 -4 -14 -1 -31 7 -40 12 -14 9 -20 -15
-39 -16 -13 -26 -27 -22 -33 3 -5 -14 -15 -40 -21 -25 -6 -67 -27 -94 -46 -28
-19 -52 -35 -54 -35 -16 0 -122 -74 -167 -116 -88 -82 -91 -89 -23 -58 32 14
86 35 119 45 33 11 69 24 80 30 15 7 30 7 50 -1 29 -11 95 -67 95 -81 0 -3
-14 -9 -32 -13 -17 -3 -45 -16 -62 -29 -17 -12 -44 -29 -61 -37 -16 -8 -46
-31 -65 -51 l-35 -37 43 -17 c68 -29 45 -49 -26 -24 -17 6 -39 9 -49 7 -13 -2
-8 -8 20 -21 43 -21 44 -25 17 -60 -29 -36 -53 -41 -99 -18 -23 10 -43 16 -46
11 -6 -10 6 -19 78 -60 50 -28 65 -31 100 -26 71 12 79 12 90 -6 9 -14 6 -22
-18 -42 -17 -15 -33 -26 -37 -26 -4 0 -19 -11 -33 -24 -14 -13 -54 -34 -88
-46 -53 -19 -154 -70 -259 -130 -72 -41 -128 -94 -128 -120 0 -11 -5 -20 -10
-20 -11 0 -25 -10 -61 -43 -16 -15 -18 -21 -8 -33 6 -8 18 -14 26 -14 8 0 33
-9 55 -20 23 -11 48 -20 56 -20 19 0 51 41 52 66 0 28 38 53 87 57 21 2 37 8
36 14 -2 7 11 11 30 11 17 0 46 3 62 7 21 4 26 4 16 -3 -7 -5 -10 -15 -6 -21
7 -12 -67 -92 -123 -134 -17 -12 -58 -42 -91 -66 -36 -27 -61 -52 -61 -63 0
-10 -11 -23 -24 -28 -13 -5 -39 -22 -57 -38 -36 -32 -51 -41 -198 -124 -73
-41 -101 -63 -120 -94 -14 -23 -39 -47 -56 -53 -49 -20 -60 -27 -63 -43 -2
-11 8 -18 31 -22 43 -8 53 -4 158 61 86 53 212 104 246 99 37 -6 24 -33 -34
-68 -32 -20 -69 -39 -83 -43 -14 -4 -34 -16 -45 -26 -11 -10 -40 -25 -63 -33
-24 -9 -71 -29 -105 -45 -34 -16 -89 -41 -122 -57 -33 -15 -64 -33 -68 -41 -4
-7 -12 -13 -18 -13 -15 0 -154 -110 -154 -123 0 -6 24 -20 53 -31 43 -15 51
-21 37 -28 -9 -6 -43 -8 -76 -6 -37 2 -60 -1 -63 -8 -2 -6 -18 -14 -35 -17
-40 -8 -158 -125 -135 -134 8 -3 47 1 87 9 48 9 87 11 117 6 25 -5 52 -7 61
-5 12 3 16 -3 15 -22 -1 -25 -3 -26 -56 -24 -30 1 -84 -1 -120 -4 l-65 -6 54
-9 c29 -4 88 -24 130 -44 126 -60 119 -75 -40 -79 -134 -4 -128 -3 -109 -15 8
-5 22 -7 30 -5 8 2 21 1 29 -4 12 -8 10 -15 -10 -39 -20 -25 -32 -31 -65 -31
-47 -1 -82 -29 -62 -49 6 -6 8 -15 4 -19 -4 -4 -10 -2 -14 4 -12 19 -80 26
-127 13 -60 -17 -57 -30 8 -30 52 0 88 -13 74 -26 -6 -6 25 -27 78 -52 26 -12
48 -39 42 -49 -3 -4 -45 -9 -94 -11 -86 -3 -183 -25 -183 -42 0 -5 9 -12 20
-15 11 -3 20 -13 20 -20 0 -10 -9 -12 -35 -8 -27 4 -35 2 -35 -10 0 -8 7 -18
16 -21 11 -4 13 -10 6 -22 -5 -9 -7 -25 -5 -34 3 -12 -6 -22 -32 -34 -20 -10
-39 -24 -42 -32 -7 -19 -22 -18 -46 3 -17 16 -19 16 -28 1 -5 -9 -25 -22 -44
-28 -19 -6 -35 -17 -35 -23 0 -19 88 -51 103 -38 8 6 29 10 48 9 19 0 44 2 57
6 32 11 28 -13 -8 -48 -17 -16 -30 -32 -28 -37 2 -5 41 -31 87 -57 82 -45 110
-72 77 -72 -9 0 -16 -4 -16 -10 0 -5 -7 -10 -16 -10 -14 0 -14 3 -4 15 7 8 11
15 9 16 -2 1 -22 3 -44 5 -22 2 -44 9 -50 17 -16 22 -92 27 -167 10 -66 -15
-91 -33 -45 -33 13 0 28 -5 34 -11 6 -6 49 -13 95 -14 161 -7 186 -42 43 -60
-16 -2 -43 -8 -60 -14 -16 -6 -42 -13 -58 -16 -39 -8 -34 -22 18 -47 25 -12
45 -26 45 -30 0 -4 11 -18 25 -30 33 -29 32 -39 -5 -31 -19 3 -30 1 -30 -6 0
-6 6 -11 14 -11 22 0 7 -37 -17 -44 -34 -9 -83 -7 -112 4 -18 7 -33 7 -47 -1
-12 -7 -47 -13 -77 -14 -31 -1 -75 -8 -99 -15 -41 -13 -42 -14 -27 -37 10 -14
11 -23 4 -23 -6 0 -24 -9 -40 -21 -16 -11 -36 -18 -44 -15 -17 6 -65 -13 -65
-26 0 -4 15 -8 33 -8 19 0 55 -11 82 -25 27 -13 52 -22 57 -19 4 3 8 -2 8 -10
0 -11 -10 -16 -31 -16 -34 0 -131 -41 -111 -47 19 -7 14 -22 -12 -35 -14 -6
-32 -27 -40 -47 -8 -21 -22 -43 -30 -51 -16 -12 -76 -96 -76 -105 0 -17 48
-71 60 -67 8 3 12 1 7 -3 -4 -5 1 -18 12 -29 24 -27 51 -107 45 -133 -4 -16
-13 -19 -50 -17 -25 2 -44 -2 -44 -7 0 -11 -38 -3 -53 11 -5 4 -1 15 8 23 14
15 15 18 0 41 -11 16 -13 26 -6 31 6 3 11 1 11 -4 0 -6 4 -11 8 -11 15 0 30
85 17 97 -16 15 -77 6 -87 -12 -6 -10 -18 -13 -38 -8 -17 3 -36 1 -42 -4 -7
-6 -26 -13 -43 -17 -16 -4 -37 -13 -45 -20 -8 -7 -35 -20 -60 -30 -25 -10 -53
-22 -62 -27 -10 -5 -27 -9 -39 -9 -11 0 -30 -5 -42 -12 -12 -6 -36 -12 -54
-14 -18 -2 -47 -13 -65 -26 -18 -13 -35 -24 -37 -26 -3 -1 3 -19 13 -38 17
-36 17 -37 -4 -31 -15 4 -20 2 -17 -8 9 -22 -15 -35 -65 -35 -36 0 -48 -4 -48
-15 0 -13 25 -15 163 -15 89 0 261 5 382 10 121 5 268 10 328 11 110 1 133 9
97 31 -27 17 -26 20 14 42 34 18 35 18 62 -3 15 -11 33 -21 40 -21 8 0 14 -4
14 -10 0 -5 -6 -10 -14 -10 -8 0 -18 -4 -21 -10 -4 -6 26 -10 84 -10 78 0 90
2 84 16 -3 10 7 29 29 52 19 20 53 62 75 92 22 30 50 63 61 74 12 10 19 23 16
27 -3 5 1 6 9 4 26 -11 154 152 143 181 -3 7 -2 13 2 11 12 -3 109 109 117
135 13 44 38 93 42 81 3 -7 -1 -22 -8 -35 -10 -21 -10 -21 4 -8 41 41 117 145
117 162 0 22 -16 24 -24 3 -3 -8 -1 -15 5 -15 6 0 4 -7 -5 -15 -18 -18 -27
-19 -22 -2 3 6 7 24 10 39 5 20 11 26 22 21 12 -4 15 0 12 17 -1 13 2 25 8 27
7 2 10 -9 8 -32 -1 -19 2 -33 7 -29 5 3 9 16 9 29 0 13 5 27 12 31 7 4 8 3 4
-4 -14 -23 2 -12 17 12 13 20 14 27 2 50 -13 25 -13 26 6 16 26 -15 39 -5 39
30 0 18 8 34 20 43 16 11 19 21 14 41 -4 16 -2 26 5 26 6 0 11 -9 11 -21 0
-27 20 -14 21 14 0 12 3 16 6 10 7 -20 23 -15 23 6 0 11 25 43 55 72 46 44 55
58 56 88 0 29 2 32 9 16 7 -18 8 -19 15 -2 4 9 5 24 1 32 -3 9 3 23 14 32 11
10 20 23 20 31 0 7 4 11 8 8 5 -3 20 16 33 42 23 45 25 52 28 80 0 8 7 12 14
9 23 -8 47 13 47 43 0 23 3 28 17 23 13 -5 15 -2 10 11 -4 9 -3 15 2 11 11 -6
26 32 22 58 -1 11 5 20 18 24 20 5 35 29 26 43 -3 4 2 13 10 20 8 7 15 19 15
27 0 8 8 13 18 11 10 -2 17 3 17 14 0 10 8 23 17 30 24 18 79 128 71 141 -3 6
-1 7 5 3 7 -4 14 3 18 19 3 14 10 25 15 25 5 0 9 5 9 11 0 8 -5 7 -15 -1 -25
-20 -26 -7 -5 36 16 32 19 35 20 16 0 -14 5 -22 13 -19 6 2 11 14 9 25 -2 15
1 20 10 17 8 -3 25 15 43 45 17 27 32 50 35 50 3 0 14 17 25 38 11 20 32 56
47 79 15 23 28 45 28 50 0 16 58 78 65 71 5 -4 -2 -15 -13 -25 -26 -23 -115
-189 -109 -206 2 -7 9 -2 17 13 7 14 28 42 46 64 18 21 32 41 31 45 -1 4 8 17
21 31 12 13 22 28 22 33 0 6 12 26 28 46 26 35 38 55 69 114 15 29 29 38 19
12 -11 -30 5 -14 58 59 30 40 61 80 68 87 7 8 30 33 50 56 20 23 39 39 42 35
3 -3 6 2 6 11 0 22 122 150 130 137 4 -6 5 -63 2 -128 -3 -111 10 -253 30
-297 6 -14 7 -6 3 23 -4 31 -1 47 10 58 20 20 20 41 0 24 -13 -11 -15 -2 -14
76 1 86 2 87 11 39 5 -27 15 -75 23 -106 7 -31 11 -85 10 -120 -3 -49 -1 -58
6 -40 5 14 8 82 7 152 -2 94 0 131 10 141 10 10 12 -15 9 -140 -3 -165 7 -205
18 -64 9 119 9 122 27 82 12 -27 13 -50 7 -95 -4 -32 -6 -61 -4 -64 3 -6 19
-265 17 -291 0 -8 -4 -108 -8 -222 -5 -161 -4 -211 6 -223 26 -32 33 -16 26
63 -6 78 0 142 14 142 4 0 5 -21 3 -46 -3 -25 0 -51 6 -58 6 -7 8 -15 5 -18
-3 -3 0 -34 6 -68 9 -52 9 -65 -4 -79 -22 -25 -45 -98 -33 -110 6 -6 5 -26 -2
-58 -8 -34 -8 -66 -1 -108 13 -76 13 -158 0 -171 -5 -5 -9 -41 -10 -79 0 -150
-1 -171 -6 -187 -3 -10 -12 -18 -20 -18 -11 0 -14 15 -14 63 0 43 -3 57 -10
47 -5 -8 -7 -38 -3 -67 4 -36 0 -68 -11 -102 -12 -37 -16 -89 -17 -198 0 -81
-1 -200 -2 -263 -2 -190 3 -320 11 -319 4 1 15 1 25 0 27 -2 20 -21 -8 -21
-18 0 -26 -7 -31 -24 -3 -14 -12 -27 -20 -30 -8 -3 -14 -13 -14 -22 0 -9 -11
-39 -25 -66 -23 -46 -26 -63 -29 -212 -3 -132 -8 -172 -25 -220 -21 -58 -22
-96 -1 -42 5 15 15 24 20 21 18 -11 40 16 40 48 0 29 1 30 15 11 28 -37 12
-130 -20 -118 -12 5 -15 -2 -15 -30 0 -23 -7 -43 -21 -57 -17 -17 -19 -23 -8
-30 26 -16 97 -3 138 25 43 30 61 28 61 -7 0 -12 6 -33 13 -47 8 -15 11 -34 6
-45 -11 -29 -10 -37 2 -30 5 4 19 -1 30 -11 22 -20 25 -62 7 -110 -10 -29 -15
-32 -40 -27 -24 5 -28 2 -28 -16 0 -23 16 -29 23 -8 2 6 7 9 11 6 11 -10 -5
-41 -19 -35 -26 10 -40 -13 -41 -68 0 -39 -6 -61 -19 -76 -10 -11 -23 -30 -29
-43 -7 -14 -22 -23 -41 -25 -26 -2 -33 3 -52 40 -39 77 -73 155 -73 166 0 7
-3 12 -8 12 -4 0 -4 -39 0 -88 4 -48 5 -141 2 -208 l-7 -121 24 -7 c13 -3 58
-9 100 -13 97 -7 167 15 205 65 18 23 31 31 44 27 13 -4 20 0 25 15 3 11 12
20 18 20 7 0 18 15 25 33 7 17 18 40 23 49 5 10 9 27 9 38 0 21 29 85 35 78 2
-2 5 -16 8 -32 2 -17 12 -33 23 -37 10 -4 13 -8 7 -8 -7 -1 -13 -8 -13 -15 0
-12 6 -13 33 -4 17 6 37 17 44 25 9 12 12 11 17 -5 6 -17 12 -19 41 -12 22 5
35 4 35 -2 0 -6 11 -7 25 -4 29 7 32 -1 8 -20 -17 -12 -16 -13 6 -14 13 0 48
-18 78 -40 29 -23 58 -38 63 -35 6 3 10 0 10 -7 0 -7 8 -71 16 -143 9 -72 15
-141 15 -155 0 -14 2 -32 5 -40 4 -13 6 -13 15 0 7 11 8 3 4 -27 -6 -41 -6
-42 27 -45 31 -3 33 -5 30 -39 -2 -23 2 -40 12 -49 9 -7 16 -21 16 -31 0 -16
8 -19 49 -19 l50 0 3 43 4 42 8 -42 c9 -45 30 -57 39 -23 4 16 14 20 46 20 34
0 41 -3 41 -20 0 -32 25 -23 38 13 16 45 16 47 -13 47 -14 0 -25 4 -25 9 0 5
8 7 18 4 10 -2 24 2 31 11 13 16 6 56 -9 56 -5 0 2 12 15 26 14 15 25 36 25
46 0 14 5 18 18 14 11 -4 28 4 47 22 l30 27 -30 3 c-17 2 -34 8 -40 13 -5 5
-26 9 -46 9 l-37 0 29 29 c23 24 29 38 29 74 0 27 5 48 13 51 6 3 2 3 -10 1
-12 -3 -24 -1 -28 5 -4 6 7 10 28 10 19 0 40 6 46 14 6 7 22 13 35 13 14 0 38
10 54 22 17 11 35 21 40 21 5 0 13 11 16 25 3 13 15 29 26 35 11 6 18 15 15
20 -3 6 1 7 9 4 17 -6 35 22 38 60 2 24 18 38 18 16 0 -5 5 -10 10 -10 6 0 10
9 10 20 0 11 7 20 15 20 8 0 15 -7 15 -15 0 -8 5 -15 10 -15 6 0 10 7 10 15 0
8 8 16 18 17 9 1 26 2 37 3 11 1 51 3 89 4 63 1 68 3 63 21 -4 16 0 20 19 20
21 0 24 4 24 40 0 29 -4 40 -15 40 -18 0 -18 4 -3 46 6 18 19 35 27 37 9 3 1
5 -18 6 -33 1 -34 2 -15 16 18 14 18 14 -11 16 -23 2 -19 3 15 8 25 3 62 4 83
2 31 -3 36 -6 26 -17 -8 -9 -8 -14 -1 -14 6 0 17 8 24 18 16 21 103 29 125 11
11 -10 16 -10 22 0 6 9 35 13 92 13 71 0 84 -3 81 -16 -2 -9 4 -16 14 -16 10
0 14 5 10 15 -8 21 20 31 41 14 13 -11 17 -11 20 -2 3 8 14 11 29 7 13 -3 24
-2 24 3 0 5 7 10 15 10 12 0 14 -10 9 -51 -4 -38 -3 -47 5 -36 8 12 11 6 13
-25 1 -22 1 -51 0 -64 -1 -14 2 -30 7 -35 4 -6 7 -32 5 -58 -1 -27 3 -48 8
-48 7 0 7 -4 1 -13 -14 -17 -26 -100 -14 -93 21 13 -5 -249 -38 -379 -25 -97
-51 -211 -51 -222 0 -10 26 -13 95 -13 91 0 95 1 97 23 4 59 6 75 15 112 6 22
12 47 14 55 3 10 -2 14 -14 12 -23 -4 -58 -38 -49 -48 4 -3 -5 -4 -21 -2 -25
5 -29 1 -54 -54 -14 -32 -34 -63 -45 -69 -24 -13 -24 -14 18 153 20 79 40 179
44 223 4 44 16 122 26 173 17 86 17 104 2 280 -8 104 -17 193 -20 198 -4 5
-36 6 -80 2 -164 -16 -559 -26 -804 -21 l-262 6 -16 -31 c-20 -39 -5 -42 22
-5 27 37 39 23 15 -19 -23 -42 -34 -50 -50 -36 -9 7 -20 6 -39 -7 -39 -25 -38
-13 1 28 41 42 48 80 13 73 -123 -26 -686 -101 -694 -93 -4 4 -1 13 6 22 17
21 71 135 63 135 -3 0 1 8 9 18 44 51 269 615 356 892 17 52 47 140 67 195 60
166 72 206 84 295 7 47 23 144 37 215 14 72 30 153 35 180 16 84 38 167 58
225 44 127 52 201 50 465 -2 138 0 256 4 262 38 62 36 1186 -3 1443 -5 36 -19
151 -30 255 -11 105 -27 253 -36 330 -8 77 -20 183 -25 235 -29 297 -54 497
-69 536 -15 37 -7 40 32 11 18 -14 51 -33 73 -43 22 -10 43 -20 48 -22 4 -2 7
1 7 6 0 5 -11 13 -24 16 -35 9 -122 110 -162 190 l-34 69 0 -40z m-443 -815
c-3 -8 -6 -5 -6 6 -1 11 2 17 5 13 3 -3 4 -12 1 -19z m230 -900 c-3 -8 -6 -5
-6 6 -1 11 2 17 5 13 3 -3 4 -12 1 -19z m-2312 -868 c3 -5 -3 -10 -15 -10 -12
0 -18 5 -15 10 3 6 10 10 15 10 5 0 12 -4 15 -10z m110 -10 c3 -5 -1 -10 -10
-10 -9 0 -13 5 -10 10 3 6 8 10 10 10 2 0 7 -4 10 -10z m-105 -150 c0 -4 -9
-10 -20 -13 -22 -6 -23 -5 -14 17 6 14 34 12 34 -4z m1521 -243 c-13 -13 -14
5 -3 43 l7 25 3 -29 c2 -16 -1 -33 -7 -39z m1134 -6 c3 -5 1 -12 -5 -16 -5 -3
-10 1 -10 9 0 18 6 21 15 7z m20 -81 l6 -35 -15 40 c-18 47 -19 52 -6 39 5 -5
12 -25 15 -44z m20 -117 c-2 -6 -13 -17 -25 -23 -17 -9 -24 -7 -45 14 -14 14
-25 33 -25 43 0 12 6 8 20 -14 32 -54 65 -40 63 27 l-1 35 8 -35 c5 -19 7 -40
5 -47z m-1118 35 c-3 -8 -6 -5 -6 6 -1 11 2 17 5 13 3 -3 4 -12 1 -19z m9
-106 c-11 -10 -15 4 -8 28 l7 25 3 -23 c2 -13 1 -26 -2 -30z m1121 -19 c-3
-10 -5 -2 -5 17 0 19 2 27 5 18 2 -10 2 -26 0 -35z m-2377 -3 c-6 -11 -13 -20
-16 -20 -2 0 0 9 6 20 6 11 13 20 16 20 2 0 0 -9 -6 -20z m-60 -169 c0 -6 -4
-13 -10 -16 -5 -3 -10 1 -10 9 0 9 5 16 10 16 6 0 10 -4 10 -9z m1267 -630 c4
0 9 -5 11 -11 3 -7 -5 -9 -20 -5 -22 6 -26 2 -38 -37 -11 -33 -15 -38 -18 -21
-2 12 2 32 9 45 9 16 9 23 0 26 -6 2 -11 10 -11 18 0 12 4 12 30 -1 16 -8 33
-15 37 -14z m-57 -136 c0 -8 -2 -15 -4 -15 -2 0 -6 7 -10 15 -3 8 -1 15 4 15
6 0 10 -7 10 -15z m-2540 -5 c0 -5 -2 -10 -4 -10 -3 0 -8 5 -11 10 -3 6 -1 10
4 10 6 0 11 -4 11 -10z m3425 -44 c-10 -50 17 -96 55 -96 17 0 33 7 39 18 9
14 10 14 11 2 1 -46 -67 -55 -99 -14 -20 26 -27 76 -15 108 11 27 15 17 9 -18z
m-729 -3 c-10 -10 -19 5 -10 18 6 11 8 11 12 0 2 -7 1 -15 -2 -18z m-189 -15
c-3 -7 -5 -2 -5 12 0 14 2 19 5 13 2 -7 2 -19 0 -25z m124 -51 c-8 -8 -11 -7
-11 4 0 20 13 34 18 19 3 -7 -1 -17 -7 -23z m59 24 c0 -6 -9 -9 -20 -8 -11 1
-20 5 -20 9 0 4 9 8 20 8 11 0 20 -4 20 -9z m-160 -18 c0 -5 -5 -15 -10 -23
-8 -12 -10 -11 -10 8 0 12 5 22 10 22 6 0 10 -3 10 -7z m31 -95 c1 -56 -14
-106 -33 -111 -15 -4 -18 -2 -13 11 4 9 9 50 12 90 5 65 7 70 20 53 7 -11 13
-30 14 -43z m109 47 c0 -8 -7 -15 -15 -15 -8 0 -15 -7 -15 -15 0 -8 5 -15 10
-15 6 0 10 -7 10 -15 0 -8 -5 -14 -12 -12 -6 1 -14 -6 -16 -17 -2 -11 0 -16 7
-12 6 4 11 0 11 -8 0 -10 -6 -13 -15 -10 -9 4 -15 1 -15 -7 0 -10 -3 -10 -11
-2 -21 21 29 143 58 143 2 0 3 -7 3 -15z m16 -188 c0 -29 -5 -55 -10 -59 -11
-7 -12 -12 -15 -80 0 -21 -5 -38 -10 -38 -12 0 -5 143 8 169 6 11 11 32 11 47
0 15 3 24 8 20 4 -4 7 -31 8 -59z m-50 2 c-16 -102 -40 -138 -82 -122 -18 7
-17 11 9 53 55 89 69 110 74 110 3 0 3 -18 -1 -41z m-9 -141 c-3 -8 -6 -5 -6
6 -1 11 2 17 5 13 3 -3 4 -12 1 -19z m-72 1 c4 -6 13 -8 21 -5 8 3 14 -1 14
-9 0 -8 -4 -15 -10 -15 -5 0 -14 -9 -20 -20 -9 -16 -8 -19 6 -13 12 4 15 2 12
-8 -3 -8 -13 -14 -24 -14 -14 0 -20 -8 -22 -32 -2 -18 -8 -33 -13 -33 -9 0 -7
27 7 95 2 11 -3 7 -11 -10 l-15 -30 6 40 c9 53 33 80 49 54z m-3005 -94 c0 -8
-9 -17 -20 -20 -11 -3 -20 -11 -20 -16 0 -5 -16 -9 -35 -9 -22 0 -35 5 -35 13
0 19 21 37 42 37 10 0 18 4 18 9 0 4 11 6 25 3 14 -2 25 -10 25 -17z m40 5 c0
-5 -5 -10 -11 -10 -5 0 -7 5 -4 10 3 6 8 10 11 10 2 0 4 -4 4 -10z m2928 -165
c-3 -3 -9 2 -12 12 -6 14 -5 15 5 6 7 -7 10 -15 7 -18z m-34 -31 c3 -9 11 -12
18 -8 7 4 10 3 5 -1 -4 -5 -16 -10 -27 -12 -14 -2 -20 3 -20 17 0 24 15 27 24
4z m1643 -880 c-3 -3 -12 -4 -19 -1 -8 3 -5 6 6 6 11 1 17 -2 13 -5z m76 -1
c-7 -2 -19 -2 -25 0 -7 3 -2 5 12 5 14 0 19 -2 13 -5z m-453 -41 c0 -13 -23
-32 -39 -32 -11 0 -10 4 5 19 20 21 34 26 34 13z m-760 -62 c-6 -11 -13 -20
-16 -20 -2 0 0 9 6 20 6 11 13 20 16 20 2 0 0 -9 -6 -20z m1237 -12 c-3 -8 -6
-5 -6 6 -1 11 2 17 5 13 3 -3 4 -12 1 -19z m-340 -4 c-3 -3 -12 -4 -19 -1 -8
3 -5 6 6 6 11 1 17 -2 13 -5z m-920 -49 c1 -40 -2 -43 -17 -14 -9 15 -8 24 1
35 15 19 15 19 16 -21z m548 15 c-3 -5 -12 -10 -18 -10 -7 0 -6 4 3 10 19 12
23 12 15 0z m608 -10 c6 -23 -10 -37 -24 -23 -10 10 -2 43 11 43 4 0 10 -9 13
-20z m-1183 -42 c-1 -28 -2 -30 -11 -15 -6 10 -8 25 -5 33 9 24 16 16 16 -18z
m-30 -16 c0 -5 -7 -17 -16 -28 -8 -10 -14 -14 -11 -9 2 6 7 18 10 28 7 17 17
23 17 9z m650 -422 c0 -5 -4 -10 -10 -10 -5 0 -10 5 -10 10 0 6 5 10 10 10 6
0 10 -4 10 -10z m-80 -20 c0 -5 -2 -10 -4 -10 -3 0 -8 5 -11 10 -3 6 -1 10 4
10 6 0 11 -4 11 -10z m170 -80 c0 -5 -6 -10 -14 -10 -8 0 -18 5 -21 10 -3 6 3
10 14 10 12 0 21 -4 21 -10z m-217 -64 c4 -10 1 -13 -8 -9 -8 3 -12 9 -9 14 7
12 11 11 17 -5z m157 -22 c0 -9 -7 -14 -17 -12 -25 5 -28 28 -4 28 12 0 21 -6
21 -16z"/>
<path d="M4205 6671 c-22 -10 -52 -23 -67 -29 -37 -15 -37 -36 -1 -27 35 8
113 54 113 66 0 12 1 12 -45 -10z"/>
<path d="M4598 6634 c-27 -14 -39 -44 -18 -44 6 0 10 4 10 10 0 5 10 18 22 30
26 24 23 25 -14 4z"/>
<path d="M4220 6593 c0 -3 7 -15 17 -25 9 -10 13 -21 9 -25 -4 -4 -11 -1 -16
7 -7 12 -11 12 -27 -2 -10 -9 -20 -17 -23 -17 -3 0 -13 -3 -22 -6 -32 -13 -9
-23 29 -13 40 9 69 14 116 16 39 3 34 13 -23 45 -53 29 -60 31 -60 20z"/>
<path d="M4525 6590 c-8 -13 5 -13 25 0 13 8 13 10 -2 10 -9 0 -20 -4 -23 -10z"/>
<path d="M4430 6530 c0 -5 5 -10 10 -10 6 0 10 5 10 10 0 6 -4 10 -10 10 -5 0
-10 -4 -10 -10z"/>
<path d="M4390 6505 c0 -8 2 -15 4 -15 2 0 11 -3 20 -6 23 -9 20 13 -4 26 -16
9 -20 8 -20 -5z"/>
<path d="M4420 6461 c0 -6 5 -13 10 -16 6 -3 10 1 10 9 0 9 -4 16 -10 16 -5 0
-10 -4 -10 -9z"/>
<path d="M4400 6434 c0 -8 5 -12 10 -9 6 3 10 10 10 16 0 5 -4 9 -10 9 -5 0
-10 -7 -10 -16z"/>
<path d="M6257 6223 c-4 -3 -7 -11 -7 -17 0 -6 5 -5 12 2 6 6 9 14 7 17 -3 3
-9 2 -12 -2z"/>
<path d="M2933 5677 c-18 -12 -32 -24 -33 -27 0 -3 32 -25 71 -49 l71 -44 56
19 c31 10 61 21 65 25 9 7 -170 100 -188 98 -6 0 -24 -11 -42 -22z"/>
<path d="M7074 5650 c8 -25 17 -52 19 -60 3 -8 6 1 6 20 0 20 -8 45 -19 60
l-20 25 14 -45z"/>
<path d="M2887 5543 c-16 -3 -31 -11 -34 -19 -3 -8 -11 -14 -19 -14 -8 0 -19
-9 -26 -20 -7 -11 -21 -20 -30 -20 -10 0 -18 -7 -18 -15 0 -8 -8 -15 -18 -15
-27 0 -77 -62 -127 -156 -29 -54 -32 -78 -7 -49 9 11 46 44 82 73 36 29 76 62
90 74 14 11 27 32 30 46 3 14 14 30 25 36 11 6 23 16 27 22 4 7 19 15 33 18
16 4 25 13 25 26 0 11 -1 19 -2 19 -2 -1 -16 -4 -31 -6z"/>
<path d="M7191 5324 c0 -11 3 -14 6 -6 3 7 2 16 -1 19 -3 4 -6 -2 -5 -13z"/>
<path d="M6884 5196 c-9 -22 -1 -59 14 -64 9 -3 12 7 10 33 -2 39 -15 55 -24
31z"/>
<path d="M6920 5193 c0 -10 7 -36 15 -58 12 -34 14 -36 15 -14 0 40 -11 89
-21 89 -5 0 -9 -8 -9 -17z"/>
<path d="M6906 5100 c3 -14 10 -29 15 -34 14 -16 10 6 -7 34 l-15 25 7 -25z"/>
<path d="M2639 5086 c-28 -13 -50 -34 -68 -64 -26 -45 -55 -85 -114 -156 -72
-88 -96 -121 -92 -124 2 -2 25 12 52 32 26 19 91 66 143 102 52 37 109 80 127
95 17 15 40 32 50 37 24 14 26 80 3 92 -24 13 -53 9 -101 -14z"/>
<path d="M7220 5090 c0 -5 5 -10 10 -10 6 0 10 5 10 10 0 6 -4 10 -10 10 -5 0
-10 -4 -10 -10z"/>
<path d="M2457 4958 c-57 -87 -90 -147 -65 -118 34 40 97 128 112 158 34 65 7
43 -47 -40z"/>
<path d="M2275 4550 c-3 -5 -2 -10 4 -10 5 0 13 5 16 10 3 6 2 10 -4 10 -5 0
-13 -4 -16 -10z"/>
<path d="M2090 4440 c-8 -5 -12 -11 -9 -14 3 -3 14 1 25 9 21 16 8 20 -16 5z"/>
<path d="M6860 4434 c0 -7 -3 -19 -6 -28 -4 -10 -1 -16 9 -16 10 0 13 7 10 20
-3 11 0 20 6 20 6 0 11 4 11 8 0 5 -7 9 -15 9 -8 0 -15 -6 -15 -13z"/>
<path d="M3623 4155 c0 -44 2 -61 4 -37 2 23 2 59 0 80 -2 20 -4 1 -4 -43z"/>
<path d="M7466 4127 c3 -10 9 -15 12 -12 3 3 0 11 -7 18 -10 9 -11 8 -5 -6z"/>
<path d="M6712 4050 c0 -14 2 -19 5 -12 2 6 2 18 0 25 -3 6 -5 1 -5 -13z"/>
<path d="M6876 4031 c-4 -7 -5 -15 -2 -18 9 -9 19 4 14 18 -4 11 -6 11 -12 0z"/>
<path d="M6683 3987 c4 -10 7 -23 7 -28 0 -6 4 -8 9 -4 5 3 12 -3 14 -12 4
-15 5 -15 6 -2 0 9 -9 27 -21 40 -16 18 -19 19 -15 6z"/>
<path d="M1753 3949 c-18 -5 -35 -14 -39 -21 -5 -8 0 -9 17 -4 13 5 44 14 69
21 38 12 41 14 15 13 -16 0 -44 -4 -62 -9z"/>
<path d="M6691 3918 c-1 -15 3 -38 9 -52 6 -17 6 -27 -1 -32 -11 -7 -2 -92 12
-110 5 -6 15 -28 23 -50 16 -47 66 -123 66 -101 0 8 4 17 10 19 6 2 6 8 0 18
-8 12 -10 12 -10 -5 0 -18 -1 -18 -16 4 -13 18 -14 25 -4 31 9 6 9 13 -3 31
-9 13 -17 37 -19 54 -2 16 -10 38 -18 48 -22 25 -28 59 -16 85 6 15 6 26 0 30
-5 4 -15 18 -21 32 l-12 25 0 -27z"/>
<path d="M6765 3890 c3 -5 8 -10 11 -10 2 0 4 5 4 10 0 6 -5 10 -11 10 -5 0
-7 -4 -4 -10z"/>
<path d="M6873 3775 c0 -38 2 -53 4 -32 2 20 2 52 0 70 -2 17 -4 1 -4 -38z"/>
<path d="M3611 3814 c0 -11 3 -14 6 -6 3 7 2 16 -1 19 -3 4 -6 -2 -5 -13z"/>
<path d="M3671 3544 c-6 -21 -10 -52 -10 -69 1 -24 3 -25 6 -7 2 12 9 20 14
17 5 -4 9 0 10 7 0 7 2 23 5 36 2 13 0 31 -5 40 -7 13 -11 8 -20 -24z"/>
<path d="M6881 3489 c-1 -69 1 -77 19 -82 19 -5 28 7 12 17 -4 2 -9 22 -10 43
-2 21 -7 52 -11 68 -7 24 -9 15 -10 -46z"/>
<path d="M7620 3491 c0 -5 5 -13 10 -16 6 -3 10 -2 10 4 0 5 -4 13 -10 16 -5
3 -10 2 -10 -4z"/>
<path d="M1550 3456 c0 -8 5 -18 10 -21 6 -3 10 1 10 9 0 8 -4 18 -10 21 -5 3
-10 -1 -10 -9z"/>
<path d="M1483 3390 c-9 -13 -9 -21 -2 -26 13 -7 15 -5 23 24 9 27 -5 29 -21
2z"/>
<path d="M3601 3288 c-1 -33 3 -58 9 -58 12 0 12 54 0 90 -6 19 -8 11 -9 -32z"/>
<path d="M1482 3218 c6 -18 28 -21 28 -4 0 9 -7 16 -16 16 -9 0 -14 -5 -12
-12z"/>
<path d="M3600 3163 c0 -32 9 -92 19 -133 l18 -75 12 45 c7 25 14 51 16 58 2
6 0 12 -5 12 -6 0 -10 -7 -10 -15 0 -8 -5 -15 -10 -15 -6 0 -8 20 -4 55 5 36
3 55 -4 55 -6 0 -13 -6 -16 -12 -3 -7 -4 8 -2 35 2 26 0 47 -5 47 -5 0 -9 -26
-9 -57z"/>
<path d="M1338 3186 c-52 -29 -50 -48 5 -40 58 8 107 24 107 34 0 13 -35 30
-57 29 -10 -1 -35 -11 -55 -23z"/>
<path d="M3641 3184 c0 -11 3 -14 6 -6 3 7 2 16 -1 19 -3 4 -6 -2 -5 -13z"/>
<path d="M7730 3068 c0 -16 5 -28 10 -28 13 0 13 20 0 40 -8 12 -10 9 -10 -12z"/>
<path d="M1290 2910 c-12 -8 -11 -10 7 -10 12 0 25 5 28 10 8 13 -15 13 -35 0z"/>
<path d="M1360 2910 c0 -5 5 -10 10 -10 6 0 10 5 10 10 0 6 -4 10 -10 10 -5 0
-10 -4 -10 -10z"/>
<path d="M1390 2869 c0 -5 5 -7 10 -4 6 3 10 8 10 11 0 2 -4 4 -10 4 -5 0 -10
-5 -10 -11z"/>
<path d="M7070 2869 c0 -17 40 -79 51 -79 5 0 9 -8 9 -18 0 -18 29 -52 44 -52
4 0 27 -16 50 -35 24 -19 46 -35 50 -35 12 0 6 48 -9 60 -8 7 -15 20 -15 30 0
10 -9 28 -20 41 l-19 24 -1 -27 c0 -30 -19 -49 -21 -21 -1 10 -2 23 -4 28 -1
6 -3 22 -3 38 -2 22 -7 27 -27 27 -14 0 -25 -4 -25 -10 0 -19 -21 -10 -32 15
-12 26 -28 34 -28 14z"/>
<path d="M3545 2847 c-4 -10 -5 -21 -1 -24 10 -10 18 4 13 24 -4 17 -4 17 -12
0z"/>
<path d="M3611 2748 c0 -28 2 -30 9 -13 12 28 12 45 0 45 -5 0 -10 -15 -9 -32z"/>
<path d="M3550 2639 c0 -5 5 -7 10 -4 6 3 10 8 10 11 0 2 -4 4 -10 4 -5 0 -10
-5 -10 -11z"/>
<path d="M7228 2213 c-23 -26 -31 -60 -19 -80 9 -16 10 -16 19 7 10 29 23 90
18 90 -1 0 -10 -8 -18 -17z"/>
<path d="M525 2185 c-5 -1 -30 -8 -55 -15 -25 -7 -73 -21 -107 -32 -56 -17
-64 -18 -78 -5 -8 9 -15 20 -15 26 0 13 5 14 -55 -5 -31 -10 -81 -15 -133 -15
l-83 2 3 -34 c2 -33 3 -34 32 -26 25 7 34 5 50 -11 20 -20 20 -20 -6 -20 -15
0 -30 -4 -33 -10 -3 -5 -15 -10 -26 -10 -17 0 -19 -8 -19 -89 l0 -89 45 -4
c37 -3 44 -1 39 12 -28 63 -9 99 78 148 48 27 60 42 34 42 -7 0 -19 6 -25 14
-13 16 4 26 45 26 21 0 24 -4 19 -21 -6 -17 -3 -20 12 -17 11 2 18 12 18 25 0
31 12 38 34 19 12 -11 20 -13 23 -6 2 6 26 12 53 14 54 4 152 43 174 69 11 14
11 17 0 16 -8 0 -18 -2 -24 -4z m-501 -261 c3 -8 2 -12 -4 -9 -6 3 -10 10 -10
16 0 14 7 11 14 -7z"/>
<path d="M7855 2160 c-3 -5 -1 -10 4 -10 6 0 11 5 11 10 0 6 -2 10 -4 10 -3 0
-8 -4 -11 -10z"/>
<path d="M9419 2146 c-2 -2 -107 -6 -234 -10 -549 -14 -1165 -38 -1226 -47
-56 -9 -66 -13 -62 -28 4 -14 16 -17 77 -16 66 0 74 -2 83 -22 13 -27 11 -28
-42 -38 -22 -4 -46 -12 -53 -17 -9 -8 -16 -8 -23 -1 -5 5 -21 8 -35 5 -17 -3
-24 -11 -24 -28 0 -13 5 -24 10 -24 6 0 10 -7 10 -15 0 -8 -7 -15 -15 -15 -8
0 -15 -7 -15 -16 0 -8 4 -12 10 -9 5 3 17 -3 27 -15 10 -11 27 -20 38 -21 13
0 9 -4 -12 -10 -42 -12 -50 -27 -19 -35 48 -12 38 -32 -20 -40 -30 -3 -54 -11
-54 -17 0 -13 184 -1 211 14 22 11 30 40 34 117 2 31 4 59 5 62 1 3 2 8 1 13
0 4 9 7 22 7 19 -1 20 -2 5 -10 -24 -14 -12 -53 14 -44 17 5 19 3 13 -15 -3
-12 -2 -21 3 -21 6 0 8 -10 5 -22 -3 -16 -2 -19 5 -10 7 10 11 10 21 -1 9 -12
6 -16 -20 -21 -36 -7 -30 -26 9 -27 25 0 25 -1 7 -10 -13 -6 6 -7 60 -3 44 3
87 6 95 5 8 0 91 2 183 5 129 5 171 10 183 21 11 12 54 16 187 21 170 6 233 7
292 3 17 -1 53 1 80 5 28 3 61 5 75 4 56 -5 130 2 124 12 -3 4 29 5 70 1 54
-4 76 -3 76 6 0 6 -17 11 -40 11 -45 0 -56 19 -12 21 15 1 33 1 40 0 6 -1 12
4 12 11 0 19 -68 14 -83 -5 -15 -19 -164 -33 -362 -32 -125 0 -140 2 -143 18
-3 13 3 17 23 17 21 0 26 4 21 16 -3 9 -6 19 -6 22 0 4 -4 1 -8 -5 -6 -10 -12
-10 -28 3 -10 8 -14 13 -7 10 7 -4 14 6 18 24 8 36 24 41 17 5 -4 -25 -4 -25
56 -21 35 3 62 0 64 -5 2 -6 48 -12 102 -13 92 -4 98 -3 93 15 -4 15 -2 17 12
9 11 -5 34 -5 61 1 25 6 54 8 66 5 18 -5 24 -1 27 16 l4 23 8 -23 c6 -19 10
-20 23 -10 12 10 16 10 19 1 11 -32 23 -8 23 45 l0 58 -145 2 c-127 1 -146 -1
-155 -16 -8 -12 -13 -14 -16 -4 -6 13 -44 17 -44 3 0 -4 -18 -3 -40 2 -29 8
-52 8 -87 -1 -26 -7 -82 -15 -123 -17 -41 -3 -77 -10 -80 -15 -4 -7 -28 -6
-65 2 -45 9 -60 9 -63 0 -5 -15 -42 -16 -42 -1 0 7 -21 9 -62 5 -35 -4 -135
-8 -223 -11 -210 -6 -357 -15 -367 -21 -4 -3 -8 8 -8 24 l0 29 203 1 c111 0
315 6 452 13 138 7 273 13 300 14 28 1 52 2 55 4 5 2 194 11 300 14 36 1 68 6
72 11 3 5 36 9 72 8 64 -2 66 -1 66 23 0 25 -1 25 -88 25 -49 0 -91 -2 -93 -4z
m35 -177 c-6 -11 -24 -2 -24 11 0 5 7 7 15 4 8 -4 12 -10 9 -15z m-190 -10
c-3 -5 -10 -7 -15 -3 -5 3 -7 10 -3 15 3 5 10 7 15 3 5 -3 7 -10 3 -15z
m-1131 4 c-7 -2 -19 -2 -25 0 -7 3 -2 5 12 5 14 0 19 -2 13 -5z m27 -38 c0 -8
-7 -15 -15 -15 -13 0 -14 3 -3 15 16 18 18 18 18 0z m-234 -32 c-10 -10 -19 5
-10 18 6 11 8 11 12 0 2 -7 1 -15 -2 -18z m929 7 c3 -5 1 -10 -4 -10 -6 0 -11
5 -11 10 0 6 2 10 4 10 3 0 8 -4 11 -10z m-908 -56 c-3 -3 -12 -4 -19 -1 -8 3
-5 6 6 6 11 1 17 -2 13 -5z m610 0 c-3 -3 -12 -4 -19 -1 -8 3 -5 6 6 6 11 1
17 -2 13 -5z m-487 -25 c0 -5 -7 -9 -15 -9 -15 0 -20 12 -9 23 8 8 24 -1 24
-14z m287 15 c-3 -3 -12 -4 -19 -1 -8 3 -5 6 6 6 11 1 17 -2 13 -5z m233 -20
c0 -2 -15 -4 -32 -3 -27 0 -29 2 -13 8 18 8 45 4 45 -5z m90 6 c0 -5 -4 -10
-10 -10 -5 0 -10 5 -10 10 0 6 5 10 10 10 6 0 10 -4 10 -10z m113 3 c-7 -2
-21 -2 -30 0 -10 3 -4 5 12 5 17 0 24 -2 18 -5z m-536 -33 c0 -27 -3 -30 -31
-29 -25 0 -27 2 -12 8 14 5 16 10 8 15 -23 14 -13 26 29 35 3 0 6 -12 6 -29z
m93 14 c0 -2 -7 -4 -15 -4 -8 0 -15 4 -15 10 0 5 7 7 15 4 8 -4 15 -8 15 -10z
m260 -8 c0 -2 -11 -6 -25 -8 -14 -3 -25 -1 -25 3 0 5 11 9 25 9 14 0 25 -2 25
-4z m63 -3 c-7 -2 -19 -2 -25 0 -7 3 -2 5 12 5 14 0 19 -2 13 -5z"/>
<path d="M7860 2093 c0 -28 3 -34 10 -23 13 20 13 60 0 60 -5 0 -10 -17 -10
-37z"/>
<path d="M3175 2011 c-9 -16 9 -20 51 -11 50 12 54 12 54 0 0 -5 -7 -10 -15
-10 -8 0 -15 -3 -15 -7 0 -5 24 -9 53 -10 46 -2 50 -1 33 12 -10 7 -15 18 -11
24 4 8 -18 11 -69 11 -41 0 -77 -4 -81 -9z"/>
<path d="M3190 1894 c-471 -25 -598 -28 -640 -14 -31 10 -93 10 -322 1 -156
-7 -317 -14 -358 -16 -41 -3 -154 -7 -250 -9 -205 -6 -189 -4 -167 -17 28 -16
20 -30 -15 -27 -18 2 -94 -1 -168 -5 -298 -17 -688 -37 -920 -47 -135 -5 -269
-12 -297 -16 l-53 -5 0 -281 0 -281 139 7 c77 3 186 11 243 16 67 7 198 7 378
2 371 -13 424 -11 428 9 3 19 -31 36 -36 19 -3 -8 -8 -8 -17 0 -9 7 -16 6 -24
-4 -10 -12 -16 -12 -38 -1 -21 11 -30 12 -42 2 -11 -9 -15 -9 -18 1 -3 6 -10
9 -16 5 -16 -10 -166 -13 -172 -3 -7 11 72 19 260 25 166 5 242 11 277 21 10
3 25 -4 34 -15 10 -11 21 -18 26 -15 4 3 5 -3 1 -12 -4 -11 -2 -15 4 -11 18
11 22 -42 12 -138 -5 -49 -11 -106 -13 -125 l-3 -35 -59 0 c-33 0 -75 3 -94 6
l-35 7 -2 -92 c-1 -50 -6 -110 -11 -132 -13 -59 3 -79 55 -65 21 6 58 11 82
11 36 0 41 -2 32 -14 -7 -8 -9 -25 -5 -42 6 -23 4 -26 -10 -21 -11 5 -16 1
-16 -13 0 -19 -55 -53 -88 -54 -8 -1 -19 -8 -25 -17 -7 -9 -28 -19 -47 -22
-127 -20 -498 -66 -695 -86 -49 -6 -148 -16 -220 -25 -72 -8 -165 -18 -207
-22 l-78 -6 0 -39 c0 -22 4 -39 9 -39 27 0 788 90 931 110 71 10 170 20 240
26 27 2 47 -2 52 -9 5 -9 11 -7 20 5 14 18 84 28 106 14 7 -4 12 -15 12 -26 0
-18 18 -30 46 -30 21 0 17 17 -6 23 -26 7 -26 27 0 27 13 0 18 5 14 15 -6 16
37 32 55 20 13 -7 34 42 27 62 -3 7 -21 13 -41 13 -32 0 -35 2 -35 29 0 17 5
33 11 37 8 5 6 10 -5 16 -21 12 -21 28 0 28 11 0 14 5 9 18 -4 9 -10 28 -14
42 -9 30 14 240 26 249 9 6 43 232 43 283 0 15 5 30 10 33 6 3 10 15 10 26 0
16 7 19 39 19 22 0 52 -5 67 -10 36 -14 142 -2 146 16 2 11 32 16 123 19 66 3
145 10 175 15 30 5 123 14 205 20 83 6 195 15 250 20 55 6 165 14 245 20 80 5
186 12 235 16 50 3 110 7 135 9 49 3 155 12 239 21 l53 6 -5 230 c-3 126 -7
231 -9 232 -2 1 -104 -4 -228 -10z m-125 -54 c-3 -5 -18 -9 -33 -9 l-27 1 30
8 c17 4 31 8 33 9 2 0 0 -3 -3 -9z m-128 -6 c-3 -3 -12 -4 -19 -1 -8 3 -5 6 6
6 11 1 17 -2 13 -5z m50 0 c-3 -3 -12 -4 -19 -1 -8 3 -5 6 6 6 11 1 17 -2 13
-5z m-1881 -121 c-4 -9 -1 -20 6 -25 9 -5 7 -8 -8 -8 -17 0 -20 5 -16 25 2 14
9 25 14 25 6 0 7 -8 4 -17z m371 -8 c-5 -14 -90 -11 -95 3 -2 8 12 11 47 10
30 -1 50 -7 48 -13z m-1207 -30 c0 -3 -9 -14 -20 -25 -23 -23 -85 -28 -77 -6
3 7 0 19 -6 25 -14 14 -3 25 18 17 9 -3 13 -11 9 -17 -8 -13 14 -29 31 -23 7
3 10 16 7 31 -4 23 -3 24 17 14 11 -7 21 -14 21 -16z m740 11 c0 -8 -15 -16
-37 -20 -59 -9 -133 -7 -133 4 0 18 27 22 75 12 36 -8 45 -7 45 4 0 8 10 14
25 14 14 0 25 -6 25 -14z m200 2 c0 -5 -19 -8 -42 -8 -24 0 -38 4 -31 8 15 9
73 9 73 0z m-392 -10 c6 -6 12 -14 12 -19 0 -12 -52 -11 -84 0 -17 7 -26 7
-28 -1 -5 -13 -48 -1 -48 14 0 6 10 8 24 4 14 -3 27 -2 30 2 7 12 79 12 94 0z
m-182 -25 c-3 -4 -37 -8 -74 -9 l-67 -2 50 14 c28 7 55 12 62 9 7 -2 16 1 20
7 5 9 8 9 11 -1 2 -7 1 -15 -2 -18z m-173 -3 c9 0 17 -4 17 -9 0 -13 -74 -20
-82 -7 -11 16 3 28 26 22 11 -3 29 -6 39 -6z m-303 -9 c0 -5 -9 -11 -20 -14
-11 -3 -20 -1 -20 3 0 5 8 11 18 13 9 3 18 5 20 6 1 0 2 -3 2 -8z m183 2 c-7
-2 -21 -2 -30 0 -10 3 -4 5 12 5 17 0 24 -2 18 -5z m1177 -133 c0 -5 -2 -10
-4 -10 -3 0 -8 5 -11 10 -3 6 -1 10 4 10 6 0 11 -4 11 -10z m90 0 c8 -5 11
-10 5 -11 -24 -3 -61 3 -69 12 -13 12 45 12 64 -1z m105 -10 c-8 -13 -45 -13
-65 0 -11 7 -3 10 28 10 26 0 41 -4 37 -10z m-1455 -30 c20 -6 14 -8 -27 -9
-28 -1 -55 4 -58 9 -7 12 48 12 85 0z m170 1 c0 -6 -8 -9 -17 -9 -10 1 -28 -2
-39 -6 -15 -4 -23 -2 -28 9 -4 12 3 15 39 15 25 0 45 -4 45 -9z m-377 -8 c-7
-2 -19 -2 -25 0 -7 3 -2 5 12 5 14 0 19 -2 13 -5z m971 -162 c3 -5 -16 -12
-42 -16 -68 -12 -202 -14 -202 -4 0 13 35 19 130 22 47 2 90 4 97 5 6 1 14 -2
17 -7z m-270 -20 c9 -14 -14 -18 -69 -12 -45 4 -47 5 -20 12 44 10 83 10 89 0z
m-184 -16 c11 -13 1 -15 -81 -14 l-94 2 68 8 c38 4 71 10 75 13 9 10 19 7 32
-9z m-172 -30 c3 -3 -37 -6 -89 -7 -52 -1 -105 -2 -119 -3 -34 -2 -48 7 -24
16 20 8 223 3 232 -6z m996 -378 c0 -15 -1 -61 -2 -103 l-2 -75 -27 3 c-20 2
-29 9 -31 26 -2 12 1 22 7 22 10 0 9 75 -1 85 -2 2 -10 -22 -16 -55 -13 -63
-34 -84 -27 -27 3 17 7 53 10 80 4 26 10 47 16 47 5 0 9 -4 9 -10 0 -5 5 -10
10 -10 6 0 10 8 10 18 0 24 10 33 30 30 9 -2 15 -14 14 -31z m-137 -49 c-3 -8
-6 -5 -6 6 -1 11 2 17 5 13 3 -3 4 -12 1 -19z"/>
<path d="M9360 1901 c0 -4 25 -8 56 -7 32 0 48 3 37 7 -26 11 -93 11 -93 0z"/>
<path d="M9325 1880 c3 -5 21 -10 38 -9 27 0 29 2 12 9 -28 12 -57 12 -50 0z"/>
<path d="M8116 1855 c-3 -8 -1 -15 4 -15 6 0 10 7 10 15 0 8 -2 15 -4 15 -2 0
-6 -7 -10 -15z"/>
<path d="M7867 1839 c7 -7 15 -10 18 -7 3 3 -2 9 -12 12 -14 6 -15 5 -6 -5z"/>
<path d="M8888 1793 c7 -3 16 -2 19 1 4 3 -2 6 -13 5 -11 0 -14 -3 -6 -6z"/>
<path d="M8125 1750 c-3 -6 1 -7 9 -4 18 7 21 14 7 14 -6 0 -13 -4 -16 -10z"/>
<path d="M7040 1710 c0 -5 5 -10 10 -10 6 0 10 5 10 10 0 6 -4 10 -10 10 -5 0
-10 -4 -10 -10z"/>
<path d="M7838 1590 c-3 -106 -5 -115 -23 -118 -11 -2 -24 -8 -29 -12 -13 -13
22 -63 40 -56 11 4 14 -5 14 -39 0 -35 -3 -43 -15 -39 -8 4 -15 11 -15 17 0 7
-4 7 -12 -1 -9 -9 -9 -15 0 -24 7 -7 13 -21 13 -33 1 -15 2 -16 6 -4 2 10 13
19 24 22 17 5 19 11 14 52 -7 53 1 88 18 82 15 -5 47 11 47 23 0 5 -8 9 -17 8
-10 -1 -29 0 -42 0 -20 2 -22 5 -13 14 14 14 16 186 2 208 -6 10 -10 -23 -12
-100z"/>
<path d="M7728 1515 c-6 -30 -3 -43 8 -33 3 4 4 19 2 35 l-3 28 -7 -30z"/>
<path d="M7693 1453 c-19 -7 -16 -20 7 -26 21 -5 25 0 12 19 -4 6 -13 9 -19 7z"/>
<path d="M8035 1328 c-5 -21 -4 -33 4 -36 6 -2 11 -8 11 -13 0 -6 -6 -7 -12
-4 -7 4 3 -9 24 -27 29 -26 34 -36 26 -49 -22 -32 -3 -49 56 -49 30 0 67 5 82
10 27 11 53 13 404 30 102 6 228 15 280 20 52 6 131 7 175 3 44 -3 90 -7 102
-8 33 -2 38 -12 22 -41 l-14 -26 -10 26 -11 26 -37 -26 c-20 -13 -37 -29 -37
-34 0 -13 54 -22 80 -12 14 5 38 6 55 2 16 -5 95 -11 173 -14 151 -5 172 -12
172 -52 0 -44 -79 -66 -176 -49 -50 9 -92 -8 -74 -30 9 -10 34 -14 93 -12 45
1 103 -2 130 -6 l47 -8 0 113 0 113 -57 -3 c-33 -2 -65 -10 -75 -19 -14 -13
-19 -13 -40 0 -35 22 -78 29 -94 16 -11 -9 -19 -8 -34 6 -26 23 -12 41 44 56
l41 11 -39 20 c-32 17 -51 19 -105 14 -36 -3 -81 -6 -99 -6 -19 1 -68 -4 -110
-9 -42 -6 -140 -13 -217 -17 -77 -3 -171 -10 -210 -15 -38 -5 -163 -12 -277
-16 -191 -5 -208 -5 -208 11 0 9 9 27 21 39 36 38 60 75 51 81 -4 2 -14 1 -21
-4 -8 -5 -31 -2 -54 6 -61 21 -74 18 -82 -18z"/>
<path d="M3371 1233 c-58 -119 -58 -120 16 -153 l38 -17 0 139 c0 76 0 138 -1
138 -1 0 -24 -48 -53 -107z"/>
<path d="M9508 1285 c-18 -6 -42 -16 -53 -23 -19 -11 -18 -11 8 -12 15 0 42 7
59 16 17 9 40 13 54 10 13 -4 24 -2 24 3 0 14 -57 18 -92 6z"/>
<path d="M7907 1243 c-4 -3 -7 -15 -7 -25 0 -16 -13 -22 -47 -21 -7 1 -13 -3
-13 -8 0 -5 -15 -9 -32 -9 -66 0 -73 -7 -89 -76 -15 -64 -15 -65 5 -62 18 3
21 9 18 41 l-3 37 45 0 c36 0 44 -3 40 -15 -4 -9 0 -15 10 -15 9 0 16 7 16 15
0 22 47 42 62 27 7 -7 16 -8 22 -2 6 4 30 11 53 13 49 6 63 13 63 31 0 25 -24
35 -63 27 -31 -8 -37 -6 -42 10 -4 10 -3 23 0 29 7 11 -28 14 -38 3z"/>
<path d="M1813 1220 c-6 -22 -8 -23 -127 -18 -67 3 -132 2 -146 -2 l-25 -7 27
-7 c34 -10 328 -1 388 12 41 8 43 9 20 16 -14 4 -38 2 -54 -3 -36 -14 -79 -14
-71 -1 4 6 15 8 26 5 11 -4 19 -2 19 4 0 6 -4 11 -9 11 -5 0 -17 3 -26 6 -11
5 -18 0 -22 -16z"/>
<path d="M7812 1220 c0 -14 2 -19 5 -12 2 6 2 18 0 25 -3 6 -5 1 -5 -13z"/>
<path d="M1618 1223 c7 -3 16 -2 19 1 4 3 -2 6 -13 5 -11 0 -14 -3 -6 -6z"/>
<path d="M2056 1215 l-29 -12 47 -7 c52 -8 133 1 119 14 -15 14 -107 17 -137
5z"/>
<path d="M1352 1140 c-15 -109 -19 -180 -10 -180 5 0 8 21 8 46 0 25 5 76 11
114 6 39 9 78 7 87 -2 10 -10 -20 -16 -67z"/>
<path d="M2868 1203 c-10 -2 -18 -11 -18 -19 0 -11 15 -14 65 -14 36 0 65 4
65 9 0 15 -81 33 -112 24z"/>
<path d="M2680 1190 c0 -5 7 -10 16 -10 8 0 12 5 9 10 -3 6 -10 10 -16 10 -5
0 -9 -4 -9 -10z"/>
<path d="M1240 1176 c0 -8 -5 -16 -11 -18 -8 -3 -9 -15 -4 -38 7 -32 8 -33 21
-15 16 22 19 71 4 80 -5 3 -10 0 -10 -9z m10 -46 c0 -5 -5 -10 -11 -10 -5 0
-7 5 -4 10 3 6 8 10 11 10 2 0 4 -4 4 -10z"/>
<path d="M3092 1181 c-21 -13 24 -21 77 -14 40 6 43 8 21 14 -35 10 -83 10
-98 0z"/>
<path d="M8099 1113 c-7 -16 -15 -31 -17 -35 -8 -17 41 -7 68 14 34 25 39 42
11 33 -11 -3 -22 -1 -26 5 -10 17 -21 12 -36 -17z"/>
<path d="M3588 1118 c6 -6 18 -8 28 -6 14 3 12 5 -9 10 -19 3 -25 2 -19 -4z"/>
<path d="M1371 1104 c0 -11 3 -14 6 -6 3 7 2 16 -1 19 -3 4 -6 -2 -5 -13z"/>
<path d="M7813 1072 c-25 -4 -32 -32 -8 -32 17 0 19 -25 17 -244 0 -134 3
-156 22 -156 8 0 10 51 8 185 -3 194 4 240 33 211 8 -8 15 -19 15 -25 0 -6 4
-11 9 -11 11 0 34 61 26 68 -6 7 -92 10 -122 4z"/>
<path d="M1223 1025 c4 -8 2 -17 -3 -20 -6 -4 -10 -13 -10 -21 0 -9 5 -12 12
-8 8 5 9 2 5 -9 -4 -11 -1 -17 8 -17 7 0 16 9 20 19 9 28 -5 71 -22 71 -9 0
-13 -6 -10 -15z"/>
<path d="M5445 990 c-3 -5 -1 -10 4 -10 6 0 10 -3 10 -7 -4 -27 3 -43 21 -43
25 0 26 18 3 36 -12 9 -14 13 -5 14 18 0 5 20 -13 20 -8 0 -17 -4 -20 -10z"/>
<path d="M5560 986 c0 -14 7 -16 38 -10 46 8 54 14 19 14 -14 0 -32 3 -41 6
-11 4 -16 1 -16 -10z"/>
<path d="M1272 970 c0 -14 2 -19 5 -12 2 6 2 18 0 25 -3 6 -5 1 -5 -13z"/>
<path d="M5674 976 c-8 -8 -7 -15 3 -24 11 -11 14 -10 19 3 9 21 -8 37 -22 21z"/>
<path d="M5720 975 c0 -8 5 -15 10 -15 6 0 10 7 10 15 0 8 -4 15 -10 15 -5 0
-10 -7 -10 -15z"/>
<path d="M7716 972 c-3 -5 -19 -7 -37 -4 -22 3 -30 1 -25 -7 4 -6 29 -11 57
-11 37 0 49 4 49 15 0 16 -35 21 -44 7z"/>
<path d="M8591 947 l-24 -14 24 -6 c13 -3 116 -8 229 -11 113 -3 248 -9 301
-12 94 -6 124 1 96 24 -6 5 -109 12 -227 16 -118 3 -251 9 -295 11 -57 4 -87
1 -104 -8z"/>
<path d="M6007 913 c-4 -3 -7 -11 -7 -17 0 -6 5 -5 12 2 6 6 9 14 7 17 -3 3
-9 2 -12 -2z"/>
<path d="M7890 904 c0 -8 5 -12 10 -9 6 3 10 10 10 16 0 5 -4 9 -10 9 -5 0
-10 -7 -10 -16z"/>
<path d="M5670 893 c0 -14 39 -43 57 -43 17 0 17 24 0 38 -8 7 -18 7 -27 2 -9
-6 -17 -5 -22 3 -6 9 -8 9 -8 0z"/>
<path d="M7902 825 c0 -16 2 -22 5 -12 2 9 2 23 0 30 -3 6 -5 -1 -5 -18z"/>
<path d="M6242 820 c0 -14 2 -19 5 -12 2 6 2 18 0 25 -3 6 -5 1 -5 -13z"/>
<path d="M3620 815 c0 -9 6 -12 15 -9 8 4 15 10 15 15 0 5 -7 9 -15 9 -8 0
-15 -7 -15 -15z"/>
<path d="M7891 774 c0 -11 3 -14 6 -6 3 7 2 16 -1 19 -3 4 -6 -2 -5 -13z"/>
<path d="M6298 763 c7 -3 16 -2 19 1 4 3 -2 6 -13 5 -11 0 -14 -3 -6 -6z"/>
<path d="M6350 740 c0 -5 5 -10 11 -10 5 0 7 5 4 10 -3 6 -8 10 -11 10 -2 0
-4 -4 -4 -10z"/>
<path d="M3587 723 c-4 -3 -7 -11 -7 -17 0 -6 5 -5 12 2 6 6 9 14 7 17 -3 3
-9 2 -12 -2z"/>
<path d="M6278 683 c-5 -38 1 -59 9 -35 3 6 11 12 19 12 19 0 18 17 -5 41 -19
20 -19 20 -23 -18z"/>
<path d="M3150 680 c-135 -15 -324 -35 -420 -44 -96 -9 -258 -26 -360 -37
-102 -10 -248 -26 -325 -34 -167 -17 -313 -32 -415 -41 -78 -7 -90 -13 -90
-53 0 -23 1 -23 83 -16 115 9 298 29 612 64 149 17 419 46 600 66 182 19 366
39 410 45 44 5 106 12 138 16 55 6 57 7 57 35 0 35 28 35 -290 -1z"/>
<path d="M9280 659 c-146 -16 -296 -34 -335 -39 -38 -6 -135 -17 -215 -25
-225 -22 -436 -43 -539 -54 -90 -10 -116 -21 -107 -46 2 -5 12 -9 22 -8 10 1
78 9 149 17 72 9 243 27 380 41 138 14 360 39 495 55 135 16 277 31 315 35
143 12 155 15 155 36 0 24 12 24 -320 -12z"/>
<path d="M5112 660 c-7 -11 -20 -20 -30 -21 -12 0 -9 -3 8 -10 17 -7 26 -7 28
0 2 6 10 11 19 11 8 0 13 7 11 17 -5 24 -21 26 -36 3z"/>
<path d="M4050 658 c0 -7 5 -20 10 -28 8 -12 10 -11 10 7 0 12 -4 25 -10 28
-5 3 -10 0 -10 -7z"/>
<path d="M6401 634 c0 -11 3 -14 6 -6 3 7 2 16 -1 19 -3 4 -6 -2 -5 -13z"/>
<path d="M7878 633 c7 -3 16 -2 19 1 4 3 -2 6 -13 5 -11 0 -14 -3 -6 -6z"/>
<path d="M1300 589 c0 -24 4 -38 10 -34 6 3 10 22 10 41 0 19 -4 34 -10 34 -5
0 -10 -18 -10 -41z"/>
<path d="M6224 619 c-3 -6 -1 -16 5 -22 8 -8 11 -8 11 2 0 7 5 9 10 6 15 -9
12 -17 -14 -47 -13 -16 -34 -28 -47 -28 -13 -1 -35 -7 -49 -15 -25 -14 -25
-14 -2 -15 26 0 27 -3 8 -33 -8 -12 -17 -33 -20 -47 -6 -23 -6 -23 9 3 9 16
18 27 20 25 2 -2 0 -32 -4 -68 -6 -44 -5 -67 3 -72 16 -10 21 0 21 40 0 31 4
38 23 40 12 2 22 -1 22 -7 0 -6 5 -11 10 -11 6 0 10 14 10 31 0 23 4 30 15 26
18 -7 30 9 14 19 -7 4 -20 -2 -31 -15 -25 -32 -53 -21 -43 17 7 29 44 64 58
55 5 -3 11 4 14 16 5 21 31 34 73 35 20 1 26 7 28 29 4 31 -5 35 -24 10 -13
-17 -14 -17 -20 3 -8 29 -85 47 -100 23z"/>
<path d="M1472 613 c21 -45 33 -63 44 -67 31 -12 6 47 -27 65 -12 6 -20 7 -17
2z"/>
<path d="M4076 603 c-4 -9 -2 -21 4 -27 7 -7 10 -2 10 17 0 31 -5 34 -14 10z"/>
<path d="M5640 610 c0 -5 5 -10 10 -10 6 0 10 5 10 10 0 6 -4 10 -10 10 -5 0
-10 -4 -10 -10z"/>
<path d="M7818 558 c-3 -59 -4 -62 -33 -70 -28 -7 -302 -48 -325 -48 -5 0 -10
-11 -10 -25 0 -25 2 -25 48 -19 26 3 97 14 157 25 129 22 162 23 168 7 3 -10
9 -8 24 5 12 10 36 17 60 17 23 0 43 5 45 11 2 6 24 11 50 12 36 2 48 6 52 20
6 23 -15 31 -58 24 -43 -7 -60 5 -53 34 5 20 2 24 -19 25 -17 1 -24 -2 -20
-11 6 -15 -26 -55 -43 -55 -8 0 -12 15 -11 43 3 62 1 67 -15 67 -10 0 -15 -16
-17 -62z"/>
<path d="M6100 594 c0 -8 5 -12 10 -9 6 3 10 10 10 16 0 5 -4 9 -10 9 -5 0
-10 -7 -10 -16z"/>
<path d="M6392 580 c0 -14 2 -19 5 -12 2 6 2 18 0 25 -3 6 -5 1 -5 -13z"/>
<path d="M4021 554 c0 -11 3 -14 6 -6 3 7 2 16 -1 19 -3 4 -6 -2 -5 -13z"/>
<path d="M6080 513 c0 -6 -3 -20 -6 -30 -7 -17 -6 -17 12 -1 14 14 16 21 6 30
-8 8 -12 9 -12 1z"/>
<path d="M6293 500 c-3 -11 -12 -20 -20 -20 -8 0 -11 -5 -8 -11 7 -11 55 26
55 43 0 17 -22 7 -27 -12z"/>
<path d="M4082 470 c0 -14 2 -19 5 -12 2 6 2 18 0 25 -3 6 -5 1 -5 -13z"/>
<path d="M4858 483 c7 -3 16 -2 19 1 4 3 -2 6 -13 5 -11 0 -14 -3 -6 -6z"/>
<path d="M4850 430 c-12 -8 -11 -10 8 -10 12 0 22 5 22 10 0 13 -11 13 -30 0z"/>
<path d="M4091 414 c0 -11 3 -14 6 -6 3 7 2 16 -1 19 -3 4 -6 -2 -5 -13z"/>
<path d="M6071 414 c0 -11 3 -14 6 -6 3 7 2 16 -1 19 -3 4 -6 -2 -5 -13z"/>
<path d="M7790 391 c0 -5 10 -11 21 -14 21 -6 21 -10 19 -169 -3 -196 -3 -208
10 -208 6 0 10 66 10 179 0 175 6 209 32 183 14 -14 23 -93 11 -101 -6 -3 -14
-17 -18 -30 -6 -20 -4 -23 9 -18 9 4 16 1 16 -5 0 -6 3 -8 7 -4 4 4 10 50 13
102 l5 94 -67 0 c-38 0 -68 -4 -68 -9z"/>
<path d="M1285 381 c-3 -5 -1 -12 5 -16 5 -3 10 1 10 9 0 18 -6 21 -15 7z"/>
<path d="M6115 370 c-3 -5 -1 -10 4 -10 6 0 11 5 11 10 0 6 -2 10 -4 10 -3 0
-8 -4 -11 -10z"/>
<path d="M1175 332 c-1 -2 1 -18 5 -36 4 -18 2 -91 -5 -162 -12 -126 -11 -144
1 -131 7 7 24 171 23 230 0 27 4 38 13 35 8 -3 11 -22 9 -57 -2 -46 0 -53 18
-58 22 -6 28 -27 10 -39 -6 -3 -9 -15 -6 -25 3 -11 1 -19 -5 -19 -5 0 -6 -9
-3 -20 4 -12 1 -27 -5 -35 -11 -13 -6 -15 32 -15 36 0 47 4 57 23 l12 22 -5
-22 c-3 -17 1 -23 15 -23 18 0 24 18 21 60 -2 28 19 185 30 223 6 20 8 40 5
44 -7 6 -216 11 -222 5z m90 -118 c-4 -52 -10 -63 -26 -47 -9 9 -8 24 2 57 16
56 29 51 24 -10z m80 -27 c-16 -125 -18 -133 -26 -107 -7 24 -7 24 -8 3 -1
-25 -13 -30 -29 -11 -19 25 34 168 58 153 5 -3 7 -20 5 -38z"/>
<path d="M6103 315 c-3 -9 -3 -18 -1 -21 3 -3 8 4 11 16 6 23 -1 27 -10 5z"/>
<path d="M1212 80 c0 -19 2 -27 5 -17 2 9 2 25 0 35 -3 9 -5 1 -5 -18z"/>
<path d="M6312 35 c-16 -34 -16 -34 16 -31 21 2 28 9 30 30 4 35 -30 36 -46 1z"/>
<path d="M9470 44 c-41 -8 -120 -20 -175 -28 l-100 -14 146 -1 c172 -1 259 12
259 40 0 23 -20 23 -130 3z"/>
<path d="M7912 20 c0 -14 2 -19 5 -12 2 6 2 18 0 25 -3 6 -5 1 -5 -13z"/>
</g>
</svg>
